<svg version="1.1" xmlns="http://www.w3.org/2000/svg" viewBox="0 0 1186.805933361377 5043.483462995638" width="2373.611866722754" height="10086.966925991275">
  <!-- svg-source:excalidraw -->
  
  <defs>
    <style class="style-fonts">
      @font-face {
        font-family: "Virgil";
        src: url("https://excalidraw.com/Virgil.woff2");
      }
      @font-face {
        font-family: "Cascadia";
        src: url("https://excalidraw.com/Cascadia.woff2");
      }
      @font-face {
        font-family: "Assistant";
        src: url("https://excalidraw.com/Assistant-Regular.woff2");
      }
    </style>
    
  </defs>
  <rect x="0" y="0" width="1186.805933361377" height="5043.483462995638" fill="#ffffff"></rect><g transform="translate(521.494132230156 10) rotate(0 52.8076171875 11.5)"><text x="0" y="18.400390625" font-family="Helvetica, Segoe UI Emoji" font-size="20px" fill="#1e1e1e" text-anchor="start" style="white-space: pre;" direction="ltr" dominant-baseline="alphabetic">Home Page</text></g><g stroke-linecap="round" transform="translate(12.44426650749972 45.524383544921875) rotate(0 566.3741760253906 356.195068359375)"><path d="M32 0 C307.7 2.65, 583.8 1.69, 1100.75 0 M32 0 C343.48 -1.63, 654.1 -1.16, 1100.75 0 M1100.75 0 C1120.74 -1.23, 1134.04 12.31, 1132.75 32 M1100.75 0 C1119.89 0.04, 1130.57 12.81, 1132.75 32 M1132.75 32 C1133.08 235.62, 1132.98 439.21, 1132.75 680.39 M1132.75 32 C1131.36 184.01, 1131.47 335.45, 1132.75 680.39 M1132.75 680.39 C1134.41 699.76, 1120.13 713.36, 1100.75 712.39 M1132.75 680.39 C1132.21 703.59, 1123.84 712.44, 1100.75 712.39 M1100.75 712.39 C736.85 712.59, 371.57 711.89, 32 712.39 M1100.75 712.39 C778.04 715.16, 455.37 714.81, 32 712.39 M32 712.39 C12.13 713.63, -1.55 701.55, 0 680.39 M32 712.39 C11.6 714.45, -2.08 702.3, 0 680.39 M0 680.39 C-0.83 517.2, -0.58 354.74, 0 32 M0 680.39 C-0.91 527.98, -1.14 375.44, 0 32 M0 32 C-1.81 8.88, 12.14 1.44, 32 0 M0 32 C-0.29 10.91, 9.14 0.51, 32 0" stroke="#1e1e1e" stroke-width="2" fill="none"></path></g><g stroke-linecap="round" transform="translate(46.79515762078097 74.919189453125) rotate(0 23.126235961914062 18.46185302734375)"><path d="M25.44 0.06 C30.24 0.23, 36.6 2.87, 39.98 5.74 C43.36 8.6, 45.32 13.4, 45.71 17.26 C46.11 21.13, 45.12 25.73, 42.35 28.92 C39.58 32.11, 34.02 35.28, 29.09 36.39 C24.16 37.49, 17.18 37.32, 12.75 35.56 C8.33 33.8, 4.56 29.42, 2.54 25.81 C0.53 22.2, -0.66 17.59, 0.66 13.89 C1.97 10.2, 6.07 5.86, 10.43 3.64 C14.79 1.41, 23.81 1.03, 26.84 0.55 C29.87 0.07, 28.55 0.46, 28.59 0.75 M18.99 -0.28 C23.66 -1.21, 30.55 0.44, 34.83 2.48 C39.11 4.51, 43.09 8.17, 44.66 11.93 C46.24 15.69, 46.03 21.28, 44.28 25.01 C42.52 28.75, 38.37 32.33, 34.14 34.35 C29.9 36.37, 23.68 37.76, 18.89 37.13 C14.09 36.5, 8.48 33.67, 5.37 30.56 C2.26 27.46, 0.18 22.53, 0.23 18.49 C0.27 14.46, 2.48 9.41, 5.64 6.36 C8.8 3.31, 16.83 1.25, 19.19 0.2 C21.56 -0.84, 19.78 -0.32, 19.85 0.07" stroke="#1e1e1e" stroke-width="2" fill="none"></path></g><g transform="translate(437.87110552304944 160.76484826857597) rotate(0 138.01757812500006 16.099999999999994)"><text x="0" y="25.760546874999996" font-family="Helvetica, Segoe UI Emoji" font-size="28px" fill="#1e1e1e" text-anchor="start" style="white-space: pre;" direction="ltr" dominant-baseline="alphabetic">Your adventure awaits</text></g><g transform="translate(727.2580476560225 84.65557325428077) rotate(0 87.2509765625 11.499999999999986)"><text x="0" y="18.400390625" font-family="Helvetica, Segoe UI Emoji" font-size="20px" fill="#1e1e1e" text-anchor="start" style="white-space: pre;" direction="ltr" dominant-baseline="alphabetic">Currency Converter</text></g><g transform="translate(934.6290832574776 82.01341789595381) rotate(0 81.3427734375 11.5)"><text x="0" y="18.400390625" font-family="Helvetica, Segoe UI Emoji" font-size="20px" fill="#1e1e1e" text-anchor="start" style="white-space: pre;" direction="ltr" dominant-baseline="alphabetic">Speech Translator</text></g><g stroke-linecap="round" transform="translate(192.04728527779866 222.425719613608) rotate(0 168.84242248535156 87.60240173339841)"><path d="M32 0 C133.2 -1.91, 235.31 -2.34, 305.68 0 M32 0 C138.4 -2.09, 242.61 -1.91, 305.68 0 M305.68 0 C328.57 -1.96, 337.43 11.51, 337.68 32 M305.68 0 C325.75 -0.41, 339.91 9.46, 337.68 32 M337.68 32 C339.89 73.54, 339.03 113.19, 337.68 143.2 M337.68 32 C336.9 59.25, 336.99 86.3, 337.68 143.2 M337.68 143.2 C336.86 163.06, 328.94 174.21, 305.68 175.2 M337.68 143.2 C339.97 163.18, 328.25 174.82, 305.68 175.2 M305.68 175.2 C197.42 176.45, 86.97 176.75, 32 175.2 M305.68 175.2 C229.67 175.16, 155.11 174.82, 32 175.2 M32 175.2 C9.14 176.86, 1.57 164.42, 0 143.2 M32 175.2 C9.17 174.13, -0.58 164.49, 0 143.2 M0 143.2 C-0.88 106.8, 1.51 73.52, 0 32 M0 143.2 C-0.74 101.86, -1.29 62.03, 0 32 M0 32 C-0.18 9.24, 8.78 1.77, 32 0 M0 32 C-1.68 10.46, 12.81 0.36, 32 0" stroke="#1e1e1e" stroke-width="2" fill="none"></path></g><g stroke-linecap="round" transform="translate(191.15362377877523 444.292434091147) rotate(0 168.84242248535156 87.60240173339844)"><path d="M32 0 C110.09 -1.77, 191.34 0.81, 305.68 0 M32 0 C139.59 -2.48, 248.2 -2.25, 305.68 0 M305.68 0 C325.53 0.47, 336.34 10.02, 337.68 32 M305.68 0 C325.88 1.76, 336.16 10.1, 337.68 32 M337.68 32 C337.2 66.77, 338.84 103.73, 337.68 143.2 M337.68 32 C337.42 69.59, 336.25 108.35, 337.68 143.2 M337.68 143.2 C337.8 164.26, 326.49 176.56, 305.68 175.2 M337.68 143.2 C337.35 164.57, 327.89 175.62, 305.68 175.2 M305.68 175.2 C227.16 174.52, 146.21 172.79, 32 175.2 M305.68 175.2 C235.66 177.83, 164.96 176.59, 32 175.2 M32 175.2 C8.69 173.74, -0.75 165.56, 0 143.2 M32 175.2 C9.58 173.95, 1.6 165.45, 0 143.2 M0 143.2 C1.83 117.06, 1.3 88.26, 0 32 M0 143.2 C0.18 107.2, 0.59 72.83, 0 32 M0 32 C-0.18 10.45, 8.84 -0.14, 32 0 M0 32 C-1.28 8.67, 9.65 1.56, 32 0" stroke="#1e1e1e" stroke-width="2" fill="none"></path></g><g stroke-linecap="round" transform="translate(618.2882062983065 448.94374024349077) rotate(0 168.84242248535162 87.60240173339844)"><path d="M32 0 C136.17 -0.57, 236.78 -3.04, 305.68 0 M32 0 C121.22 1.06, 209.82 1.2, 305.68 0 M305.68 0 C328.55 -1.33, 337.19 11.16, 337.68 32 M305.68 0 C328.1 -0.34, 336.53 9.15, 337.68 32 M337.68 32 C336.38 68.23, 338.08 103.95, 337.68 143.2 M337.68 32 C336.88 55.72, 337.69 79.81, 337.68 143.2 M337.68 143.2 C337.71 165.3, 327.38 175.06, 305.68 175.2 M337.68 143.2 C339.55 162.44, 329.28 177.06, 305.68 175.2 M305.68 175.2 C212.84 175.73, 120.15 175.71, 32 175.2 M305.68 175.2 C201.13 172.81, 98.11 172.74, 32 175.2 M32 175.2 C9.58 176.6, 0.79 163.59, 0 143.2 M32 175.2 C9.86 173.34, 1.66 166.77, 0 143.2 M0 143.2 C-1.37 104.59, -1.08 65.16, 0 32 M0 143.2 C-0.59 106.58, -0.55 71.22, 0 32 M0 32 C-1.74 9.78, 12.03 -1.58, 32 0 M0 32 C-1.16 12.36, 11.6 -1.46, 32 0" stroke="#1e1e1e" stroke-width="2" fill="none"></path></g><g stroke-linecap="round" transform="translate(613.631345946744 222.33161866145957) rotate(0 168.84242248535162 87.60240173339841)"><path d="M32 0 C98.99 -1.7, 167.48 -1.59, 305.68 0 M32 0 C104.73 -1.82, 178.68 -1.26, 305.68 0 M305.68 0 C326.73 -1.01, 336.36 11.3, 337.68 32 M305.68 0 C326.5 1.06, 336.47 9.95, 337.68 32 M337.68 32 C335.5 69.09, 336.42 105.42, 337.68 143.2 M337.68 32 C337.9 73.08, 337.45 114.6, 337.68 143.2 M337.68 143.2 C335.86 166.51, 328.63 176.03, 305.68 175.2 M337.68 143.2 C336.97 163.58, 327.86 177.29, 305.68 175.2 M305.68 175.2 C199.6 175.37, 94.56 176.32, 32 175.2 M305.68 175.2 C210.13 174.36, 113.13 173.78, 32 175.2 M32 175.2 C9.04 176.65, 1.94 165.45, 0 143.2 M32 175.2 C12.07 175.63, -0.79 164.3, 0 143.2 M0 143.2 C1.54 111.92, 0.46 79.16, 0 32 M0 143.2 C0.18 111.32, -0.17 77.58, 0 32 M0 32 C1.47 11.48, 9.39 -1.43, 32 0 M0 32 C1.29 8.92, 11.53 -0.62, 32 0" stroke="#1e1e1e" stroke-width="2" fill="none"></path></g><g transform="translate(318.06336804147054 365.01177918392045) rotate(0 46.1474609375 11.5)"><text x="0" y="18.400390625" font-family="Helvetica, Segoe UI Emoji" font-size="20px" fill="#1e1e1e" text-anchor="start" style="white-space: pre;" direction="ltr" dominant-baseline="alphabetic">Location 1</text></g><g transform="translate(740.7879774164707 364.73187195735795) rotate(0 46.1474609375 11.5)"><text x="0" y="18.400390625" font-family="Helvetica, Segoe UI Emoji" font-size="20px" fill="#1e1e1e" text-anchor="start" style="white-space: pre;" direction="ltr" dominant-baseline="alphabetic">Location 2</text></g><g transform="translate(308.81287976022054 580.3159784026705) rotate(0 46.1474609375 11.5)"><text x="0" y="18.400390625" font-family="Helvetica, Segoe UI Emoji" font-size="20px" fill="#1e1e1e" text-anchor="start" style="white-space: pre;" direction="ltr" dominant-baseline="alphabetic">Location 3</text></g><g transform="translate(749.8249647211582 581.8135980315767) rotate(0 46.1474609375 11.5)"><text x="0" y="18.400390625" font-family="Helvetica, Segoe UI Emoji" font-size="20px" fill="#1e1e1e" text-anchor="start" style="white-space: pre;" direction="ltr" dominant-baseline="alphabetic">Location 4</text></g><g stroke-linecap="round"><g transform="translate(11.78575820671847 137.8509521484375) rotate(0 568.3015747070312 -0.2218780517578125)"><path d="M-0.34 -0.18 C188.89 -0.5, 946.32 -0.93, 1135.93 -0.94 M1.68 -1.32 C191.26 -1.56, 949.08 -0.08, 1138.29 0.33" stroke="#1e1e1e" stroke-width="2" fill="none"></path></g></g><mask></mask><g stroke-linecap="round" transform="translate(497.6170179438143 644.8829339690767) rotate(0 76.49758911132812 16.919677734375)"><path d="M8.46 0 C38.16 -0.99, 69.21 -1.89, 144.54 0 M8.46 0 C58.8 0.81, 108.19 1.41, 144.54 0 M144.54 0 C150.02 -0.42, 151.09 1.37, 153 8.46 M144.54 0 C151.73 1.97, 151.48 5.07, 153 8.46 M153 8.46 C153.91 12.45, 152.02 19.48, 153 25.38 M153 8.46 C153.01 14.77, 152.4 22.5, 153 25.38 M153 25.38 C153.55 31.05, 151.07 33.78, 144.54 33.84 M153 25.38 C154.42 32.82, 151.58 34.09, 144.54 33.84 M144.54 33.84 C111.16 32.25, 75.59 34.37, 8.46 33.84 M144.54 33.84 C109.08 35.35, 73.19 35.41, 8.46 33.84 M8.46 33.84 C4.44 34.35, 0.48 32.07, 0 25.38 M8.46 33.84 C1.23 31.82, 1.64 32.82, 0 25.38 M0 25.38 C0.88 21.35, 1.17 15.89, 0 8.46 M0 25.38 C-0.5 20.79, 0.46 16.24, 0 8.46 M0 8.46 C0.88 1.58, 1.86 -1.48, 8.46 0 M0 8.46 C1.25 1.86, 2.08 -2.07, 8.46 0" stroke="#1e1e1e" stroke-width="2" fill="none"></path></g><g transform="translate(526.5403883051424 652.6026117034517) rotate(0 47.57421875 9.199999999999989)"><text x="47.57421875" y="14.720312499999999" font-family="Helvetica, Segoe UI Emoji" font-size="16px" fill="#1e1e1e" text-anchor="middle" style="white-space: pre;" direction="ltr" dominant-baseline="alphabetic">Explore More</text></g><g stroke-linecap="round" transform="translate(49.75766677605441 704.5401916503906) rotate(0 23.126235961914062 18.46185302734375)"><path d="M17.85 0.88 C22.46 -0.16, 29.46 0.43, 33.95 2.23 C38.44 4.03, 42.92 8.03, 44.79 11.67 C46.65 15.31, 46.69 20.36, 45.14 24.07 C43.58 27.79, 39.6 31.82, 35.46 33.96 C31.31 36.09, 25.23 37.43, 20.25 36.87 C15.27 36.32, 8.97 33.53, 5.58 30.63 C2.18 27.73, 0.05 23.43, -0.12 19.48 C-0.3 15.53, 1.46 10.07, 4.54 6.92 C7.62 3.77, 15.95 1.62, 18.34 0.58 C20.73 -0.46, 18.72 0.39, 18.91 0.69 M24.45 -0.42 C29.37 -0.43, 35.47 2, 39.18 4.66 C42.89 7.33, 46.01 11.65, 46.72 15.58 C47.43 19.5, 46.17 24.77, 43.45 28.23 C40.72 31.7, 35.27 35.07, 30.35 36.37 C25.42 37.66, 18.5 37.61, 13.9 35.98 C9.3 34.35, 5.09 30.19, 2.73 26.59 C0.38 22.98, -1.1 18.16, -0.21 14.37 C0.68 10.58, 3.99 6.26, 8.08 3.86 C12.17 1.46, 21.69 0.48, 24.34 -0.03 C26.98 -0.54, 24.15 0.53, 23.96 0.82" stroke="#1e1e1e" stroke-width="2" fill="none"></path></g><g transform="translate(450.3882362340622 718.0818176269531) rotate(0 136.64453125 9.199999999999989)"><text x="0" y="14.720312499999999" font-family="Helvetica, Segoe UI Emoji" font-size="16px" fill="#1e1e1e" text-anchor="start" style="white-space: pre;" direction="ltr" dominant-baseline="alphabetic">MTB Traveler 2024. All rights reserved</text></g><g transform="translate(967.2144691442185 719.2586364746094) rotate(0 32.90625 9.199999999999989)"><text x="0" y="14.720312499999999" font-family="Helvetica, Segoe UI Emoji" font-size="16px" fill="#1e1e1e" text-anchor="start" style="white-space: pre;" direction="ltr" dominant-baseline="alphabetic">About Us</text></g><g stroke-linecap="round" transform="translate(11.823203275077844 888.1334533691406) rotate(0 566.3741760253906 356.195068359375)"><path d="M32 0 C318.26 1.19, 606.3 0.95, 1100.75 0 M32 0 C423.88 0.19, 815.98 0.06, 1100.75 0 M1100.75 0 C1122.62 -1.09, 1131.52 9.03, 1132.75 32 M1100.75 0 C1120.73 2.15, 1132.41 11.29, 1132.75 32 M1132.75 32 C1133.86 212.36, 1133.04 393.88, 1132.75 680.39 M1132.75 32 C1134.7 162.48, 1134.54 293.54, 1132.75 680.39 M1132.75 680.39 C1131.41 702.06, 1121.25 712.04, 1100.75 712.39 M1132.75 680.39 C1132.81 701.38, 1123.18 713.49, 1100.75 712.39 M1100.75 712.39 C767.44 711.39, 433.66 712.28, 32 712.39 M1100.75 712.39 C783.94 710.98, 466.71 711.14, 32 712.39 M32 712.39 C9.95 712.7, 1.1 703.21, 0 680.39 M32 712.39 C9.3 712.14, 2.17 700.37, 0 680.39 M0 680.39 C-2.39 483.8, -2.96 287.56, 0 32 M0 680.39 C-0.03 440.11, 0.1 199.65, 0 32 M0 32 C0.7 9.76, 11.43 -1.55, 32 0 M0 32 C0.31 11.76, 12.61 1.33, 32 0" stroke="#1e1e1e" stroke-width="2" fill="none"></path></g><g transform="translate(513.342520902031 846.4198913574219) rotate(0 63.9404296875 11.5)"><text x="0" y="18.400390625" font-family="Helvetica, Segoe UI Emoji" font-size="20px" fill="#1e1e1e" text-anchor="start" style="white-space: pre;" direction="ltr" dominant-baseline="alphabetic">Location Page</text></g><g stroke-linecap="round" transform="translate(43.50876540886691 911.7366027832031) rotate(0 23.126235961914062 18.46185302734375)"><path d="M21.37 -0.06 C26.08 -0.53, 32.47 1.42, 36.52 3.81 C40.57 6.19, 44.44 10.55, 45.66 14.26 C46.88 17.96, 46.02 22.45, 43.83 26.02 C41.65 29.59, 37.02 34, 32.55 35.66 C28.09 37.33, 21.83 37.08, 17.05 36.01 C12.27 34.94, 6.72 32.45, 3.87 29.25 C1.02 26.04, -0.56 20.85, -0.04 16.77 C0.48 12.69, 3.29 7.53, 7 4.76 C10.71 1.99, 19.51 0.88, 22.24 0.15 C24.97 -0.59, 23.33 0.05, 23.4 0.34 M20.95 -0.08 C25.83 -0.6, 33.27 1.48, 37.29 3.77 C41.31 6.05, 43.9 9.94, 45.05 13.63 C46.2 17.31, 46.22 22.37, 44.18 25.89 C42.15 29.41, 37.49 33.09, 32.87 34.73 C28.24 36.36, 21.18 36.6, 16.44 35.7 C11.69 34.79, 7.18 32.57, 4.4 29.28 C1.61 25.99, -0.81 19.97, -0.28 15.95 C0.24 11.93, 3.98 7.82, 7.55 5.18 C11.12 2.54, 18.86 0.79, 21.12 0.11 C23.38 -0.58, 20.96 0.88, 21.11 1.08" stroke="#1e1e1e" stroke-width="2" fill="none"></path></g><g stroke-linecap="round" transform="translate(43.50876540886691 1537.7357482910156) rotate(0 23.126235961914062 18.46185302734375)"><path d="M26.63 -0.26 C31.3 0.1, 37.23 3.67, 40.53 6.71 C43.84 9.74, 46.41 13.96, 46.48 17.93 C46.56 21.89, 44.16 27.35, 40.97 30.49 C37.79 33.63, 32.23 36.16, 27.38 36.77 C22.54 37.38, 16.27 36.08, 11.91 34.15 C7.54 32.23, 3 28.84, 1.17 25.22 C-0.67 21.6, -0.78 16.18, 0.89 12.42 C2.56 8.66, 6.79 4.76, 11.19 2.67 C15.6 0.59, 24.46 0.26, 27.3 -0.11 C30.15 -0.48, 28.34 0, 28.27 0.45 M25.37 -0.57 C30.22 -0.53, 36.35 1.99, 39.76 4.8 C43.17 7.62, 45.36 12.19, 45.81 16.31 C46.27 20.42, 45.36 26.27, 42.51 29.5 C39.66 32.73, 33.51 34.73, 28.74 35.68 C23.97 36.63, 18.38 36.74, 13.89 35.18 C9.41 33.63, 4.08 29.82, 1.82 26.35 C-0.43 22.88, -1.02 18.3, 0.37 14.37 C1.77 10.43, 6.01 5.2, 10.19 2.74 C14.37 0.28, 23.03 -0.08, 25.43 -0.39 C27.83 -0.69, 24.57 0.41, 24.6 0.92" stroke="#1e1e1e" stroke-width="2" fill="none"></path></g><g transform="translate(987.091328527274 1557.506358245968) rotate(0 32.90625 9.200000000000045)"><text x="0" y="14.720312499999999" font-family="Helvetica, Segoe UI Emoji" font-size="16px" fill="#1e1e1e" text-anchor="start" style="white-space: pre;" direction="ltr" dominant-baseline="alphabetic">About Us</text></g><g stroke-linecap="round"><g transform="translate(11.417321861926439 986.2225610489904) rotate(0 568.3015747070312 -0.2218780517578125)"><path d="M0.03 -1.17 C189.61 -1.29, 948.05 -1.42, 1137.58 -1.29 M-1.42 0.84 C188.08 0.9, 947.44 -0.22, 1137.15 -0.2" stroke="#1e1e1e" stroke-width="2" fill="none"></path></g></g><mask></mask><g stroke-linecap="round" transform="translate(21.535605804585884 1705.3166814170754) rotate(0 566.3741760253906 356.195068359375)"><path d="M32 0 C428.65 1.22, 823.96 2.03, 1100.75 0 M32 0 C376.04 1.55, 719.49 1.47, 1100.75 0 M1100.75 0 C1123.98 -0.22, 1133.95 10.42, 1132.75 32 M1100.75 0 C1123.55 0.05, 1133.92 11.48, 1132.75 32 M1132.75 32 C1131.02 286.65, 1132.32 542.52, 1132.75 680.39 M1132.75 32 C1133.48 235.86, 1133.18 440.56, 1132.75 680.39 M1132.75 680.39 C1131.06 701.48, 1121.48 710.62, 1100.75 712.39 M1132.75 680.39 C1133.06 701.94, 1123.92 712.27, 1100.75 712.39 M1100.75 712.39 C880.48 711.39, 659.47 710.62, 32 712.39 M1100.75 712.39 C681.99 714.93, 263.77 714.49, 32 712.39 M32 712.39 C9.68 712.17, -0.1 699.81, 0 680.39 M32 712.39 C11.75 712.82, 2 702.76, 0 680.39 M0 680.39 C0.27 434.86, -0.19 190, 0 32 M0 680.39 C0.65 425.47, 0.39 170.42, 0 32 M0 32 C-0.21 8.74, 11.21 1.73, 32 0 M0 32 C-2.07 11.94, 8.96 -1.94, 32 0" stroke="#1e1e1e" stroke-width="2" fill="none"></path></g><g transform="translate(523.054923431539 1663.6031194053567) rotate(0 85.60058593749994 11.5)"><text x="0" y="18.400390625" font-family="Helvetica, Segoe UI Emoji" font-size="20px" fill="#1e1e1e" text-anchor="start" style="white-space: pre;" direction="ltr" dominant-baseline="alphabetic">Explore More Page</text></g><g stroke-linecap="round" transform="translate(53.22116793837495 1728.919830831138) rotate(0 23.126235961914062 18.46185302734375)"><path d="M27 -0.14 C31.69 0.33, 37.41 3.9, 40.61 7.05 C43.81 10.2, 46.17 14.81, 46.2 18.74 C46.23 22.67, 43.97 27.6, 40.8 30.63 C37.63 33.66, 32.02 36.18, 27.18 36.89 C22.35 37.61, 16.1 37.01, 11.77 34.93 C7.43 32.85, 2.99 28.23, 1.19 24.42 C-0.6 20.6, -0.8 15.6, 1 12.03 C2.79 8.45, 7.4 4.87, 11.96 2.96 C16.52 1.05, 25.46 0.82, 28.37 0.56 C31.27 0.3, 29.55 1.11, 29.38 1.38 M25.8 -0.52 C30.63 -0.26, 36.69 2.98, 40.2 5.99 C43.7 8.99, 46.72 13.68, 46.82 17.52 C46.93 21.36, 43.98 25.75, 40.85 29.02 C37.72 32.3, 32.72 36.07, 28.04 37.16 C23.36 38.26, 17.21 37.4, 12.75 35.59 C8.29 33.78, 3.25 30, 1.28 26.31 C-0.69 22.61, -0.59 17.21, 0.93 13.4 C2.44 9.59, 6.11 5.71, 10.39 3.45 C14.68 1.18, 24.11 0.31, 26.64 -0.19 C29.17 -0.69, 25.75 0.19, 25.6 0.43" stroke="#1e1e1e" stroke-width="2" fill="none"></path></g><g stroke-linecap="round" transform="translate(53.22116793837495 2354.9189763389504) rotate(0 23.126235961914062 18.46185302734375)"><path d="M24.72 0.53 C29.45 0.71, 35.72 2.85, 39.28 5.59 C42.84 8.34, 45.6 13.08, 46.08 17.01 C46.57 20.94, 44.96 25.89, 42.2 29.17 C39.43 32.46, 34.3 35.77, 29.49 36.72 C24.67 37.67, 17.93 36.62, 13.32 34.88 C8.72 33.14, 3.89 29.69, 1.87 26.27 C-0.16 22.84, -0.15 18.11, 1.16 14.32 C2.48 10.53, 5.66 5.84, 9.77 3.53 C13.88 1.21, 23.1 0.95, 25.83 0.44 C28.56 -0.06, 26.16 0.34, 26.14 0.52 M22.51 0.08 C27.34 -0.17, 34.28 1.58, 38.03 3.92 C41.79 6.25, 44.19 10.1, 45.07 14.09 C45.94 18.09, 45.49 24.19, 43.29 27.89 C41.1 31.6, 36.56 34.85, 31.9 36.32 C27.25 37.78, 20.13 37.97, 15.37 36.69 C10.61 35.4, 5.92 31.98, 3.36 28.58 C0.8 25.19, -0.8 20.36, 0.03 16.33 C0.86 12.29, 4.67 7.09, 8.33 4.36 C12 1.63, 19.7 0.71, 22.04 -0.07 C24.38 -0.86, 22.25 -0.68, 22.39 -0.34" stroke="#1e1e1e" stroke-width="2" fill="none"></path></g><g transform="translate(723.9359604758396 1744.7249409241958) rotate(0 87.2509765625 11.5)"><text x="0" y="18.400390625" font-family="Helvetica, Segoe UI Emoji" font-size="20px" fill="#1e1e1e" text-anchor="start" style="white-space: pre;" direction="ltr" dominant-baseline="alphabetic">Currency Converter</text></g><g transform="translate(923.8876844624991 1745.1705096279766) rotate(0 81.3427734375 11.5)"><text x="0" y="18.400390625" font-family="Helvetica, Segoe UI Emoji" font-size="20px" fill="#1e1e1e" text-anchor="start" style="white-space: pre;" direction="ltr" dominant-baseline="alphabetic">Speech Translator</text></g><g transform="translate(996.8037310567819 2374.6895862939027) rotate(0 32.90625 9.200000000000045)"><text x="0" y="14.720312499999999" font-family="Helvetica, Segoe UI Emoji" font-size="16px" fill="#1e1e1e" text-anchor="start" style="white-space: pre;" direction="ltr" dominant-baseline="alphabetic">About Us</text></g><g stroke-linecap="round"><g transform="translate(21.12972439143448 1803.4057890969252) rotate(0 568.3015747070312 -0.2218780517578125)"><path d="M1.12 -0.51 C190.3 -0.81, 946.5 -1.56, 1135.68 -1.37 M0.24 1.83 C189.74 1.62, 948.74 0.18, 1137.91 -0.33" stroke="#1e1e1e" stroke-width="2" fill="none"></path></g></g><mask></mask><g stroke-linecap="round" transform="translate(192.87021374959306 1870.9386419146917) rotate(0 60.99915611770808 26.475355651706423)"><path d="M13.24 0 C49.24 0.15, 90.04 2.63, 108.76 0 M13.24 0 C43.96 -0.91, 73.29 0.4, 108.76 0 M108.76 0 C115.9 -0.25, 121.4 2.64, 122 13.24 M108.76 0 C117.9 0.22, 123.84 4.29, 122 13.24 M122 13.24 C123.65 19.24, 123.68 22.79, 122 39.71 M122 13.24 C121.69 24.28, 122.78 33.53, 122 39.71 M122 39.71 C121.01 48.32, 117.49 51.04, 108.76 52.95 M122 39.71 C123.08 48.97, 119.59 53.99, 108.76 52.95 M108.76 52.95 C73.89 51.9, 36.59 53.45, 13.24 52.95 M108.76 52.95 C71.23 52.5, 33.02 52.18, 13.24 52.95 M13.24 52.95 C4.2 51.02, 0.54 50.27, 0 39.71 M13.24 52.95 C2.34 54.23, -1.71 46.6, 0 39.71 M0 39.71 C-0.61 33.21, 0.99 26.59, 0 13.24 M0 39.71 C-0.52 33.68, 0.29 28.11, 0 13.24 M0 13.24 C1.2 3.88, 3.99 1.5, 13.24 0 M0 13.24 C1.26 2.34, 3.03 1.48, 13.24 0" stroke="#1e1e1e" stroke-width="2" fill="none"></path></g><g stroke-linecap="round" transform="translate(192.79821380845044 1952.6361414113644) rotate(0 60.99915611770808 26.475355651706195)"><path d="M13.24 0 C36.29 2.17, 56.23 0.64, 108.76 0 M13.24 0 C42.84 1.27, 71.82 0.64, 108.76 0 M108.76 0 C116.98 -1.77, 122.27 4.6, 122 13.24 M108.76 0 C119.43 -0.12, 119.85 2.57, 122 13.24 M122 13.24 C124.14 19.03, 124.08 27.34, 122 39.71 M122 13.24 C122.75 22.14, 121.43 31.83, 122 39.71 M122 39.71 C121.9 46.63, 118.53 53.32, 108.76 52.95 M122 39.71 C124 49.58, 119.39 53.17, 108.76 52.95 M108.76 52.95 C89.52 54.32, 71.83 52.4, 13.24 52.95 M108.76 52.95 C84.15 52.66, 60.69 52, 13.24 52.95 M13.24 52.95 C4.96 54.68, -1.8 49.65, 0 39.71 M13.24 52.95 C2.7 51.01, -1.78 47.51, 0 39.71 M0 39.71 C0.97 31.88, -1.3 28.21, 0 13.24 M0 39.71 C0.57 32.27, 0.69 23.41, 0 13.24 M0 13.24 C-0.42 5.92, 5.5 -1.81, 13.24 0 M0 13.24 C-1.38 5.89, 2.78 1.88, 13.24 0" stroke="#1e1e1e" stroke-width="2" fill="none"></path></g><g stroke-linecap="round" transform="translate(192.9833611757938 2043.2527580221467) rotate(0 60.99915611770808 26.475355651706195)"><path d="M13.24 0 C39.42 -0.54, 65.22 0.39, 108.76 0 M13.24 0 C33.41 -0.6, 54.97 -1.37, 108.76 0 M108.76 0 C117.86 0.19, 123.6 4.31, 122 13.24 M108.76 0 C115.44 -1.84, 121.35 6.56, 122 13.24 M122 13.24 C124.08 21.59, 123.31 29.96, 122 39.71 M122 13.24 C121.72 22.85, 122.17 31.73, 122 39.71 M122 39.71 C122.94 48.91, 119.33 53.85, 108.76 52.95 M122 39.71 C123.81 48.76, 115.36 54.44, 108.76 52.95 M108.76 52.95 C82.54 53.13, 51.62 53.67, 13.24 52.95 M108.76 52.95 C79.86 51.7, 51.44 53.53, 13.24 52.95 M13.24 52.95 C2.61 54.06, -1.49 46.85, 0 39.71 M13.24 52.95 C2.63 51.93, -1.25 47.7, 0 39.71 M0 39.71 C-1.52 34.09, -0.06 24.79, 0 13.24 M0 39.71 C0.47 31.36, -0.34 24.29, 0 13.24 M0 13.24 C1.09 2.61, 3.21 1.28, 13.24 0 M0 13.24 C-1.64 6.29, 6.43 1.75, 13.24 0" stroke="#1e1e1e" stroke-width="2" fill="none"></path></g><g stroke-linecap="round" transform="translate(192.12575752607222 2140.3652605532307) rotate(0 60.99915611770808 26.475355651706195)"><path d="M13.24 0 C51.16 1.12, 87.04 -0.39, 108.76 0 M13.24 0 C46.39 -0.77, 80.28 0.21, 108.76 0 M108.76 0 C119.19 -0.11, 120.13 2.81, 122 13.24 M108.76 0 C116.93 2.14, 122.6 6.6, 122 13.24 M122 13.24 C123.31 18.78, 123.59 27.06, 122 39.71 M122 13.24 C121.82 19.04, 122.34 26.95, 122 39.71 M122 39.71 C123.74 49.44, 119.16 53.14, 108.76 52.95 M122 39.71 C119.77 50.03, 117.45 53.13, 108.76 52.95 M108.76 52.95 C72.33 52.76, 37.89 51.46, 13.24 52.95 M108.76 52.95 C83.25 52.89, 56.3 52.58, 13.24 52.95 M13.24 52.95 C2.93 51.26, -1.55 47.65, 0 39.71 M13.24 52.95 C3.17 52.12, -0.7 49.54, 0 39.71 M0 39.71 C0.24 32.88, 0.29 28.32, 0 13.24 M0 39.71 C-0.37 30.99, 0.39 19.86, 0 13.24 M0 13.24 C-1.2 5.7, 2.99 1.63, 13.24 0 M0 13.24 C2.02 6.16, 6.55 1.13, 13.24 0" stroke="#1e1e1e" stroke-width="2" fill="none"></path></g><g stroke-linecap="round" transform="translate(655.1876114845575 1873.570743094111) rotate(0 60.99915611770808 26.475355651706195)"><path d="M13.24 0 C42.05 -0.83, 75.07 -2.3, 108.76 0 M13.24 0 C40.85 0.94, 68.98 0.79, 108.76 0 M108.76 0 C115.72 -1.6, 121.43 6.28, 122 13.24 M108.76 0 C118.19 2.18, 120.39 6.52, 122 13.24 M122 13.24 C123.48 22.45, 121.25 27.38, 122 39.71 M122 13.24 C122.46 21.08, 122.86 28.99, 122 39.71 M122 39.71 C123.57 48.73, 115.65 54.25, 108.76 52.95 M122 39.71 C121.86 48.72, 119.22 55.09, 108.76 52.95 M108.76 52.95 C82.5 51.71, 55.58 52.76, 13.24 52.95 M108.76 52.95 C88.42 54.33, 69.13 52.93, 13.24 52.95 M13.24 52.95 C2.87 52.06, -1.08 47.81, 0 39.71 M13.24 52.95 C3.71 53.96, -1.53 46.93, 0 39.71 M0 39.71 C0.1 30.74, 1.15 21.01, 0 13.24 M0 39.71 C0.6 31.57, -0.54 25.87, 0 13.24 M0 13.24 C-1.42 6.04, 6.17 1.52, 13.24 0 M0 13.24 C2.13 5.54, 3.53 -2.19, 13.24 0" stroke="#1e1e1e" stroke-width="2" fill="none"></path></g><g stroke-linecap="round" transform="translate(654.8845362734394 1953.1746807399932) rotate(0 60.99915611770808 26.475355651706195)"><path d="M13.24 0 C49.07 -1.58, 82.64 -0.5, 108.76 0 M13.24 0 C34.22 -0.14, 52.67 -0.89, 108.76 0 M108.76 0 C117.02 1.86, 122.52 6.31, 122 13.24 M108.76 0 C115.98 2.11, 121.67 5.64, 122 13.24 M122 13.24 C121.29 19.47, 121.96 27.59, 122 39.71 M122 13.24 C122.99 19.1, 122.91 24.16, 122 39.71 M122 39.71 C120.06 49.84, 117.47 53.1, 108.76 52.95 M122 39.71 C123.63 50.68, 117.02 51.83, 108.76 52.95 M108.76 52.95 C79.3 52.14, 49.12 52.89, 13.24 52.95 M108.76 52.95 C71.09 52.64, 34.14 53.04, 13.24 52.95 M13.24 52.95 C3.33 52.22, -0.61 49.41, 0 39.71 M13.24 52.95 C2.89 51.34, 1.74 48.61, 0 39.71 M0 39.71 C1.14 33.82, -0.54 25.12, 0 13.24 M0 39.71 C-0.74 30.42, -0.86 20.66, 0 13.24 M0 13.24 C1.76 5.94, 6.27 0.98, 13.24 0 M0 13.24 C-0.89 2.22, 6.46 -0.82, 13.24 0" stroke="#1e1e1e" stroke-width="2" fill="none"></path></g><g stroke-linecap="round" transform="translate(655.7133595252055 2044.478568033007) rotate(0 60.99915611770808 26.475355651706195)"><path d="M13.24 0 C40.61 0.2, 66.7 1.08, 108.76 0 M13.24 0 C41.87 -0.75, 72.08 0.98, 108.76 0 M108.76 0 C118.11 1.9, 120.6 6.25, 122 13.24 M108.76 0 C117.26 1.22, 121.37 5.96, 122 13.24 M122 13.24 C121.66 23.26, 119.97 34.42, 122 39.71 M122 13.24 C123.01 21.77, 121.26 30.76, 122 39.71 M122 39.71 C121.88 48.69, 119.01 54.81, 108.76 52.95 M122 39.71 C121.43 47.41, 117.63 52.98, 108.76 52.95 M108.76 52.95 C84.18 53.39, 65.19 51.05, 13.24 52.95 M108.76 52.95 C74.03 51.7, 40.3 51.78, 13.24 52.95 M13.24 52.95 C3.81 53.83, -1.33 47.14, 0 39.71 M13.24 52.95 C6.16 53.02, -0.74 48.66, 0 39.71 M0 39.71 C-0.68 30.06, 1.35 22.34, 0 13.24 M0 39.71 C-0.55 34.98, 1.04 29.37, 0 13.24 M0 13.24 C1.85 5.4, 3.64 -1.91, 13.24 0 M0 13.24 C2.05 3.6, 4.01 -0.34, 13.24 0" stroke="#1e1e1e" stroke-width="2" fill="none"></path></g><g stroke-linecap="round" transform="translate(656.1256827775412 2138.896481332423) rotate(0 60.99915611770808 26.475355651706195)"><path d="M13.24 0 C32.07 0.56, 54.64 1.89, 108.76 0 M13.24 0 C41.11 1.7, 69.81 1.72, 108.76 0 M108.76 0 C116.19 1.83, 121.71 5.48, 122 13.24 M108.76 0 C116.96 1.55, 123.89 3.39, 122 13.24 M122 13.24 C120.06 20.82, 122.34 28.25, 122 39.71 M122 13.24 C121.24 23.03, 122.15 31.59, 122 39.71 M122 39.71 C123.42 50.4, 117.09 51.97, 108.76 52.95 M122 39.71 C122.05 48.57, 116.14 52.26, 108.76 52.95 M108.76 52.95 C82.83 51.41, 54.55 51.72, 13.24 52.95 M108.76 52.95 C87.63 52.16, 67.28 52.96, 13.24 52.95 M13.24 52.95 C3.08 51.55, 1.52 48.6, 0 39.71 M13.24 52.95 C3.67 53.08, 1.12 49.87, 0 39.71 M0 39.71 C1.57 31.27, -1.74 19.45, 0 13.24 M0 39.71 C1.07 30.83, 1.12 20.92, 0 13.24 M0 13.24 C-0.77 2.5, 6.2 -0.71, 13.24 0 M0 13.24 C-0.4 4.07, 6.57 1.65, 13.24 0" stroke="#1e1e1e" stroke-width="2" fill="none"></path></g><g stroke-linecap="round" transform="translate(660.6540597691617 2218.956304397613) rotate(0 60.99915611770808 26.475355651706195)"><path d="M13.24 0 C39.21 1.47, 64.69 -1.99, 108.76 0 M13.24 0 C34.5 0.06, 54.53 0.03, 108.76 0 M108.76 0 C117.3 1.06, 121.45 5.76, 122 13.24 M108.76 0 C119.48 -1.02, 120.86 4.16, 122 13.24 M122 13.24 C122.12 22.8, 122.65 30.44, 122 39.71 M122 13.24 C121.68 21.51, 122.45 30.56, 122 39.71 M122 39.71 C121.5 47.56, 117.63 52.98, 108.76 52.95 M122 39.71 C120.55 47.85, 117.35 50.73, 108.76 52.95 M108.76 52.95 C78.62 50.6, 44.58 50.55, 13.24 52.95 M108.76 52.95 C84.05 53.04, 59.29 51.9, 13.24 52.95 M13.24 52.95 C5.93 53.01, -0.64 48.65, 0 39.71 M13.24 52.95 C5.53 54.28, 1.38 47.93, 0 39.71 M0 39.71 C-2.01 31.13, 1.08 23.51, 0 13.24 M0 39.71 C0.69 30.1, -0.62 18.55, 0 13.24 M0 13.24 C1.78 3.7, 4.06 -0.3, 13.24 0 M0 13.24 C2.16 6.06, 3.39 2.2, 13.24 0" stroke="#1e1e1e" stroke-width="2" fill="none"></path></g><g stroke-linecap="round" transform="translate(190.93512355715666 2228.899116120164) rotate(0 60.99915611770808 26.475355651706195)"><path d="M13.24 0 C43.1 -2.63, 71.56 -1.33, 108.76 0 M13.24 0 C50.1 0.01, 88.22 -0.37, 108.76 0 M108.76 0 C117.04 1.34, 123.64 3.52, 122 13.24 M108.76 0 C116.45 -0.25, 121.89 2.21, 122 13.24 M122 13.24 C122.95 24, 122.24 29.68, 122 39.71 M122 13.24 C122.69 23.83, 121.73 32.07, 122 39.71 M122 39.71 C122.04 48.57, 116.33 52.35, 108.76 52.95 M122 39.71 C121.76 46.32, 118.21 54.94, 108.76 52.95 M108.76 52.95 C87.01 50.69, 67.74 51.16, 13.24 52.95 M108.76 52.95 C82.91 52.67, 59.14 53.4, 13.24 52.95 M13.24 52.95 C3.77 53.06, 0.98 49.69, 0 39.71 M13.24 52.95 C5.79 52.34, -0.48 50.27, 0 39.71 M0 39.71 C1.52 28.9, 1.87 22.7, 0 13.24 M0 39.71 C-0.63 28.8, 0.65 19.44, 0 13.24 M0 13.24 C-0.35 4.11, 6.29 1.44, 13.24 0 M0 13.24 C-1.02 6.61, 4.76 0.18, 13.24 0" stroke="#1e1e1e" stroke-width="2" fill="none"></path></g><g transform="translate(367.6223428198721 1886.4854906837945) rotate(0 46.1474609375 11.5)"><text x="0" y="18.400390625" font-family="Helvetica, Segoe UI Emoji" font-size="20px" fill="#1e1e1e" text-anchor="start" style="white-space: pre;" direction="ltr" dominant-baseline="alphabetic">Location 1</text></g><g transform="translate(362.29383967681633 1969.108665111793) rotate(0 46.1474609375 11.5)"><text x="0" y="18.400390625" font-family="Helvetica, Segoe UI Emoji" font-size="20px" fill="#1e1e1e" text-anchor="start" style="white-space: pre;" direction="ltr" dominant-baseline="alphabetic">Location 2</text></g><g transform="translate(366.2889635353515 2058.002243022328) rotate(0 46.1474609375 11.5)"><text x="0" y="18.400390625" font-family="Helvetica, Segoe UI Emoji" font-size="20px" fill="#1e1e1e" text-anchor="start" style="white-space: pre;" direction="ltr" dominant-baseline="alphabetic">Location 3</text></g><g transform="translate(362.4040013814604 2153.2328599401885) rotate(0 46.1474609375 11.5)"><text x="0" y="18.400390625" font-family="Helvetica, Segoe UI Emoji" font-size="20px" fill="#1e1e1e" text-anchor="start" style="white-space: pre;" direction="ltr" dominant-baseline="alphabetic">Location 4</text></g><g transform="translate(362.165926797016 2245.208355113827) rotate(0 46.1474609375 11.5)"><text x="0" y="18.400390625" font-family="Helvetica, Segoe UI Emoji" font-size="20px" fill="#1e1e1e" text-anchor="start" style="white-space: pre;" direction="ltr" dominant-baseline="alphabetic">Location 5</text></g><g transform="translate(825.8271439637086 2246.8784013353) rotate(0 51.708984375 11.5)"><text x="0" y="18.400390625" font-family="Helvetica, Segoe UI Emoji" font-size="20px" fill="#1e1e1e" text-anchor="start" style="white-space: pre;" direction="ltr" dominant-baseline="alphabetic">Location 10</text></g><g transform="translate(828.1005996171365 2150.081504256621) rotate(0 46.1474609375 11.5)"><text x="0" y="18.400390625" font-family="Helvetica, Segoe UI Emoji" font-size="20px" fill="#1e1e1e" text-anchor="start" style="white-space: pre;" direction="ltr" dominant-baseline="alphabetic">Location 9</text></g><g transform="translate(823.967055749389 2057.2495148817075) rotate(0 46.1474609375 11.5)"><text x="0" y="18.400390625" font-family="Helvetica, Segoe UI Emoji" font-size="20px" fill="#1e1e1e" text-anchor="start" style="white-space: pre;" direction="ltr" dominant-baseline="alphabetic">Location 8</text></g><g transform="translate(825.8960602907845 1966.9402807524866) rotate(0 46.1474609375 11.5)"><text x="0" y="18.400390625" font-family="Helvetica, Segoe UI Emoji" font-size="20px" fill="#1e1e1e" text-anchor="start" style="white-space: pre;" direction="ltr" dominant-baseline="alphabetic">Location 7</text></g><g transform="translate(823.5153144463396 1887.4525415160351) rotate(0 46.1474609375 11.5)"><text x="0" y="18.400390625" font-family="Helvetica, Segoe UI Emoji" font-size="20px" fill="#1e1e1e" text-anchor="start" style="white-space: pre;" direction="ltr" dominant-baseline="alphabetic">Location 6</text></g><g stroke-linecap="round" transform="translate(299.5165359514531 1022.1608672944349) rotate(0 287.7725234238821 107.42786051605299)"><path d="M32 0 C168.87 -1.14, 306.73 -1.31, 543.55 0 M32 0 C168.46 0.7, 304.38 0.79, 543.55 0 M543.55 0 C563.48 -1.25, 574.12 11.38, 575.55 32 M543.55 0 C564.82 -0.19, 574.45 12.7, 575.55 32 M575.55 32 C574.73 84.67, 575.87 141.74, 575.55 182.86 M575.55 32 C575.12 82.4, 573.55 133.77, 575.55 182.86 M575.55 182.86 C575.96 205.69, 566.49 215.24, 543.55 214.86 M575.55 182.86 C574.34 202.14, 564.12 213.76, 543.55 214.86 M543.55 214.86 C385.34 215.03, 226.45 215.28, 32 214.86 M543.55 214.86 C349.79 213.78, 156.92 213.21, 32 214.86 M32 214.86 C9.96 216.79, -0.61 204.39, 0 182.86 M32 214.86 C9.13 215.53, 2.02 205.72, 0 182.86 M0 182.86 C1.64 140.06, -1.41 100.38, 0 32 M0 182.86 C1.05 124.89, 0.84 67.43, 0 32 M0 32 C-1.17 10.73, 10.53 -0.96, 32 0 M0 32 C0.49 11.38, 10.8 -1.07, 32 0" stroke="#1e1e1e" stroke-width="2" fill="none"></path></g><g transform="translate(544.3756586975094 1198.2320979376534) rotate(0 37.8076171875 11.5)"><text x="0" y="18.400390625" font-family="Helvetica, Segoe UI Emoji" font-size="20px" fill="#1e1e1e" text-anchor="start" style="white-space: pre;" direction="ltr" dominant-baseline="alphabetic">Location</text></g><g transform="translate(148.27306475410626 1275.1197158927785) rotate(0 85.8525390625 16.100000000000023)"><text x="0" y="25.760546874999996" font-family="Helvetica, Segoe UI Emoji" font-size="28px" fill="#1e1e1e" text-anchor="start" style="white-space: pre;" direction="ltr" dominant-baseline="alphabetic">Popular Trails</text></g><g transform="translate(191.6913494526715 1329.0471196016008) rotate(0 30.1953125 11.5)"><text x="0" y="18.400390625" font-family="Helvetica, Segoe UI Emoji" font-size="20px" fill="#1e1e1e" text-anchor="start" style="white-space: pre;" direction="ltr" dominant-baseline="alphabetic">1. Trail</text></g><g transform="translate(191.1135919381045 1369.8672521061656) rotate(0 30.1953125 11.5)"><text x="0" y="18.400390625" font-family="Helvetica, Segoe UI Emoji" font-size="20px" fill="#1e1e1e" text-anchor="start" style="white-space: pre;" direction="ltr" dominant-baseline="alphabetic">2. Trail</text></g><g transform="translate(190.65056036556257 1407.3183159848097) rotate(0 30.1953125 11.5)"><text x="0" y="18.400390625" font-family="Helvetica, Segoe UI Emoji" font-size="20px" fill="#1e1e1e" text-anchor="start" style="white-space: pre;" direction="ltr" dominant-baseline="alphabetic">3. Trail</text></g><g transform="translate(189.1676846233072 1445.7292485553412) rotate(0 30.1953125 11.5)"><text x="0" y="18.400390625" font-family="Helvetica, Segoe UI Emoji" font-size="20px" fill="#1e1e1e" text-anchor="start" style="white-space: pre;" direction="ltr" dominant-baseline="alphabetic">4. Trail</text></g><g transform="translate(187.67900059212263 1479.6110209941728) rotate(0 30.1953125 11.5)"><text x="0" y="18.400390625" font-family="Helvetica, Segoe UI Emoji" font-size="20px" fill="#1e1e1e" text-anchor="start" style="white-space: pre;" direction="ltr" dominant-baseline="alphabetic">5. Trail</text></g><g transform="translate(658.1136377806243 1279.1896605816873) rotate(0 56.79296875 16.100000000000023)"><text x="0" y="25.760546874999996" font-family="Helvetica, Segoe UI Emoji" font-size="28px" fill="#1e1e1e" text-anchor="start" style="white-space: pre;" direction="ltr" dominant-baseline="alphabetic">Currency</text></g><g transform="translate(659.5193325362067 1395.8762821489663) rotate(0 62.2890625 16.100000000000023)"><text x="0" y="25.760546874999996" font-family="Helvetica, Segoe UI Emoji" font-size="28px" fill="#1e1e1e" text-anchor="start" style="white-space: pre;" direction="ltr" dominant-baseline="alphabetic">Language</text></g><g transform="translate(663.4208475822119 1337.7288251899236) rotate(0 87.8125 11.5)"><text x="0" y="18.400390625" font-family="Helvetica, Segoe UI Emoji" font-size="20px" fill="#1e1e1e" text-anchor="start" style="white-space: pre;" direction="ltr" dominant-baseline="alphabetic">(Location Currency)</text></g><g transform="translate(661.9220010211842 1458.8009659458216) rotate(0 91.73828125 11.5)"><text x="0" y="18.400390625" font-family="Helvetica, Segoe UI Emoji" font-size="20px" fill="#1e1e1e" text-anchor="start" style="white-space: pre;" direction="ltr" dominant-baseline="alphabetic">(Location Language)</text></g><g stroke-linecap="round" transform="translate(920.4016082778647 1323.710195227862) rotate(0 71.1901742994936 22.09127221990127)"><path d="M11.05 0 C48.6 -1.37, 88.28 -1.14, 131.33 0 M11.05 0 C52.1 0.47, 94.66 0.5, 131.33 0 M131.33 0 C137.04 1.99, 144.33 5.12, 142.38 11.05 M131.33 0 C137.08 -0.99, 143.89 3.74, 142.38 11.05 M142.38 11.05 C144.51 18.29, 144.07 25.4, 142.38 33.14 M142.38 11.05 C143.39 18.66, 142.38 25.66, 142.38 33.14 M142.38 33.14 C141.85 39.6, 139.2 45.08, 131.33 44.18 M142.38 33.14 C142.38 38.57, 139.87 42.84, 131.33 44.18 M131.33 44.18 C103.29 44.69, 73.34 44.16, 11.05 44.18 M131.33 44.18 C85.14 44.16, 36.94 43.85, 11.05 44.18 M11.05 44.18 C5.65 43.99, -1.73 41.6, 0 33.14 M11.05 44.18 C3.33 45.3, -0.95 38.89, 0 33.14 M0 33.14 C0.11 27.34, 0.56 22.52, 0 11.05 M0 33.14 C0.63 26.36, 0.45 21.47, 0 11.05 M0 11.05 C0.13 3.65, 2.7 -1.33, 11.05 0 M0 11.05 C-1.24 3.18, 4.12 0.82, 11.05 0" stroke="#1e1e1e" stroke-width="2" fill="none"></path></g><g transform="translate(956.5771341398585 1334.3014674477631) rotate(0 35.0146484375 11.5)"><text x="35.0146484375" y="18.400390625" font-family="Helvetica, Segoe UI Emoji" font-size="20px" fill="#1e1e1e" text-anchor="middle" style="white-space: pre;" direction="ltr" dominant-baseline="alphabetic">Convert</text></g><g stroke-linecap="round" transform="translate(918.869394710544 1445.747827621482) rotate(0 71.1901742994936 22.09127221990127)"><path d="M11.05 0 C46.89 2.58, 86.76 0.53, 131.33 0 M11.05 0 C57.65 0.22, 103.82 1.53, 131.33 0 M131.33 0 C140.01 -1.01, 140.41 4.67, 142.38 11.05 M131.33 0 C140.37 1.16, 144.55 4.27, 142.38 11.05 M142.38 11.05 C142.49 16.11, 143.58 21.74, 142.38 33.14 M142.38 11.05 C143.34 16.87, 141.67 22.67, 142.38 33.14 M142.38 33.14 C142.09 39.8, 137.43 43.11, 131.33 44.18 M142.38 33.14 C141.19 40.63, 136.65 45.72, 131.33 44.18 M131.33 44.18 C102.7 44.13, 72.46 45.15, 11.05 44.18 M131.33 44.18 C97.96 43.85, 65.18 44.45, 11.05 44.18 M11.05 44.18 C3.57 43.39, 1.4 39.49, 0 33.14 M11.05 44.18 C4.12 45.29, 2.27 42.59, 0 33.14 M0 33.14 C0.65 23.31, -0.21 16.78, 0 11.05 M0 33.14 C0.32 26.19, -0.52 20.88, 0 11.05 M0 11.05 C1.57 2.03, 4.45 0.09, 11.05 0 M0 11.05 C-0.71 4.62, 3.35 -1.62, 11.05 0" stroke="#1e1e1e" stroke-width="2" fill="none"></path></g><g transform="translate(948.7412096350378 1456.3390998413834) rotate(0 41.318359375 11.5)"><text x="41.318359375" y="18.400390625" font-family="Helvetica, Segoe UI Emoji" font-size="20px" fill="#1e1e1e" text-anchor="middle" style="white-space: pre;" direction="ltr" dominant-baseline="alphabetic">Translate</text></g><g stroke-linecap="round" transform="translate(22.857535488053486 2593.504170175594) rotate(0 566.3741760253906 356.195068359375)"><path d="M32 0 C328.19 0.24, 624.53 0.18, 1100.75 0 M32 0 C328.69 -4.28, 625.38 -4.42, 1100.75 0 M1100.75 0 C1121.86 0.26, 1134.66 11.11, 1132.75 32 M1100.75 0 C1121.39 0.55, 1130.87 10.13, 1132.75 32 M1132.75 32 C1131.16 236.03, 1131.23 439.14, 1132.75 680.39 M1132.75 32 C1130.8 167.34, 1130.98 302.08, 1132.75 680.39 M1132.75 680.39 C1134.33 703.07, 1123.4 713.76, 1100.75 712.39 M1132.75 680.39 C1134.58 700.61, 1123.49 712.14, 1100.75 712.39 M1100.75 712.39 C783.85 714.82, 466.37 714.77, 32 712.39 M1100.75 712.39 C703.55 709.83, 305.61 709.22, 32 712.39 M32 712.39 C11.82 712.15, -0.17 700.97, 0 680.39 M32 712.39 C10.52 710.29, -0.02 701.78, 0 680.39 M0 680.39 C1.99 507.54, 1.06 333.99, 0 32 M0 680.39 C-0.3 519.68, -0.46 359.13, 0 32 M0 32 C-0.19 11.4, 10.88 -0.95, 32 0 M0 32 C-0.54 9, 12.42 -1.57, 32 0" stroke="#1e1e1e" stroke-width="2" fill="none"></path></g><g transform="translate(490.21856696611746 2548.0846587800315) rotate(0 107.4755859375 11.5)"><text x="0" y="18.400390625" font-family="Helvetica, Segoe UI Emoji" font-size="20px" fill="#1e1e1e" text-anchor="start" style="white-space: pre;" direction="ltr" dominant-baseline="alphabetic">Speech Translator Page</text></g><g stroke-linecap="round" transform="translate(54.54309762184255 2617.1073195896565) rotate(0 23.126235961914062 18.46185302734375)"><path d="M23.39 -0.11 C27.94 -0.24, 34.16 1.86, 37.94 4.57 C41.72 7.29, 45.23 12.31, 46.06 16.2 C46.9 20.1, 45.54 24.72, 42.96 27.95 C40.38 31.18, 35.33 34.26, 30.6 35.56 C25.86 36.85, 19.25 37.15, 14.54 35.71 C9.84 34.27, 4.68 30.35, 2.39 26.94 C0.1 23.52, -0.3 18.99, 0.82 15.22 C1.95 11.44, 5.23 6.89, 9.13 4.3 C13.03 1.72, 21.43 0.39, 24.21 -0.29 C27 -0.98, 25.72 -0.16, 25.84 0.19 M24.22 0.52 C28.93 0.24, 35.34 1.75, 39.04 4.27 C42.75 6.79, 45.83 11.79, 46.46 15.64 C47.09 19.49, 45.42 23.88, 42.83 27.36 C40.23 30.84, 35.56 35.05, 30.88 36.53 C26.2 38.01, 19.43 37.68, 14.76 36.22 C10.1 34.77, 5.31 31.47, 2.86 27.82 C0.41 24.16, -0.99 18.17, 0.07 14.29 C1.13 10.41, 5.34 7, 9.22 4.52 C13.09 2.03, 20.83 0.08, 23.32 -0.62 C25.81 -1.33, 24.1 -0.08, 24.14 0.29" stroke="#1e1e1e" stroke-width="2" fill="none"></path></g><g stroke-linecap="round" transform="translate(54.54309762184255 3243.106465097469) rotate(0 23.126235961914062 18.46185302734375)"><path d="M21.91 -0.05 C26.68 -0.3, 33.51 2.01, 37.5 4.44 C41.5 6.87, 44.86 10.82, 45.88 14.55 C46.9 18.27, 46 23.26, 43.62 26.79 C41.24 30.31, 36.28 34.2, 31.59 35.68 C26.9 37.15, 20.1 36.83, 15.47 35.66 C10.85 34.48, 6.3 31.87, 3.82 28.61 C1.35 25.35, 0.07 20.14, 0.65 16.1 C1.22 12.06, 3.35 7.09, 7.26 4.36 C11.18 1.63, 21.06 0.39, 24.13 -0.27 C27.19 -0.93, 25.69 -0.03, 25.64 0.39 M27.59 -0.1 C32.27 0.19, 38.09 3.47, 41.2 6.42 C44.31 9.37, 46.21 13.54, 46.23 17.6 C46.25 21.66, 44.49 27.53, 41.35 30.8 C38.21 34.07, 32.33 36.49, 27.4 37.2 C22.47 37.91, 16.14 37.19, 11.75 35.05 C7.36 32.92, 2.71 28.11, 1.05 24.4 C-0.6 20.68, 0.17 16.51, 1.84 12.76 C3.5 9.01, 6.76 4, 11.02 1.91 C15.29 -0.19, 24.78 0.43, 27.42 0.17 C30.06 -0.09, 26.99 0.14, 26.85 0.34" stroke="#1e1e1e" stroke-width="2" fill="none"></path></g><g transform="translate(124.54816128988301 2627.1803375031295) rotate(0 60.19531250000003 11.5)"><text x="0" y="18.400390625" font-family="Helvetica, Segoe UI Emoji" font-size="20px" fill="#1e1e1e" text-anchor="start" style="white-space: pre;" direction="ltr" dominant-baseline="alphabetic">MTB Traveler</text></g><g transform="translate(725.2578901593071 2632.9124296827135) rotate(0 87.2509765625 11.5)"><text x="0" y="18.400390625" font-family="Helvetica, Segoe UI Emoji" font-size="20px" fill="#1e1e1e" text-anchor="start" style="white-space: pre;" direction="ltr" dominant-baseline="alphabetic">Currency Converter</text></g><g transform="translate(925.2096141459666 2633.3579983864943) rotate(0 81.3427734375 11.5)"><text x="0" y="18.400390625" font-family="Helvetica, Segoe UI Emoji" font-size="20px" fill="#1e1e1e" text-anchor="start" style="white-space: pre;" direction="ltr" dominant-baseline="alphabetic">Speech Translator</text></g><g transform="translate(998.1256607402494 3262.8770750524213) rotate(0 32.90625 9.200000000000045)"><text x="0" y="14.720312499999999" font-family="Helvetica, Segoe UI Emoji" font-size="16px" fill="#1e1e1e" text-anchor="start" style="white-space: pre;" direction="ltr" dominant-baseline="alphabetic">About Us</text></g><g stroke-linecap="round"><g transform="translate(22.45165407490208 2691.593277855443) rotate(0 568.3015747070312 -0.2218780517578125)"><path d="M0.16 -1 C189.62 -0.89, 946.21 0.16, 1135.79 0.42 M-1.21 1.08 C188.72 0.89, 948.3 -0.85, 1138.07 -1.25" stroke="#1e1e1e" stroke-width="2" fill="none"></path></g></g><mask></mask><g transform="translate(420.08150605469973 2728.024141123691) rotate(0 159.50976562499994 16.09999999999991)"><text x="0" y="25.760546874999996" font-family="Helvetica, Segoe UI Emoji" font-size="28px" fill="#1e1e1e" text-anchor="start" style="white-space: pre;" direction="ltr" dominant-baseline="alphabetic">Communicate with Locals</text></g><g transform="translate(711.3777744525472 925.5603487268852) rotate(0 87.2509765625 11.5)"><text x="0" y="18.400390625" font-family="Helvetica, Segoe UI Emoji" font-size="20px" fill="#1e1e1e" text-anchor="start" style="white-space: pre;" direction="ltr" dominant-baseline="alphabetic">Currency Converter</text></g><g transform="translate(918.7488100540025 922.9181933685581) rotate(0 81.3427734375 11.5)"><text x="0" y="18.400390625" font-family="Helvetica, Segoe UI Emoji" font-size="20px" fill="#1e1e1e" text-anchor="start" style="white-space: pre;" direction="ltr" dominant-baseline="alphabetic">Speech Translator</text></g><g stroke-linecap="round" transform="translate(225.63660178412033 2784.024618060688) rotate(0 81.11618114115231 23.4013024202427)"><path d="M11.7 0 C53.16 -0.31, 92.34 0.55, 150.53 0 M11.7 0 C51.04 -0.19, 90.84 -0.71, 150.53 0 M150.53 0 C156.4 -0.87, 164.14 4.19, 162.23 11.7 M150.53 0 C157.72 0.13, 161.39 6.03, 162.23 11.7 M162.23 11.7 C161.38 17.73, 163.53 24.37, 162.23 35.1 M162.23 11.7 C163.25 20.19, 162.5 28.69, 162.23 35.1 M162.23 35.1 C161.82 41.85, 156.7 47.81, 150.53 46.8 M162.23 35.1 C161.67 42.39, 159.76 45.79, 150.53 46.8 M150.53 46.8 C98.71 49.04, 42.46 46.01, 11.7 46.8 M150.53 46.8 C107.5 47.08, 64 47.07, 11.7 46.8 M11.7 46.8 C5.18 47.3, 1.48 43.33, 0 35.1 M11.7 46.8 C3.14 46.42, 2.27 42.71, 0 35.1 M0 35.1 C0.58 28.08, 0.99 21.84, 0 11.7 M0 35.1 C0.48 28.36, -0.49 20.35, 0 11.7 M0 11.7 C-1.82 2.68, 4.65 0.29, 11.7 0 M0 11.7 C-0.01 4.92, 5.16 1.23, 11.7 0" stroke="#1e1e1e" stroke-width="2" fill="none"></path></g><g transform="translate(257.26547823777264 2795.925920480931) rotate(0 49.4873046875 11.5)"><text x="49.4873046875" y="18.400390625" font-family="Helvetica, Segoe UI Emoji" font-size="20px" fill="#1e1e1e" text-anchor="middle" style="white-space: pre;" direction="ltr" dominant-baseline="alphabetic">Voice Input</text></g><g stroke-linecap="round" transform="translate(121.59409268149341 2868.597905825134) rotate(0 197.68002331191428 150.90893985966545)"><path d="M32 0 C125.48 1.15, 217.13 0.29, 363.36 0 M32 0 C133.85 1.98, 234.71 1.82, 363.36 0 M363.36 0 C386.35 0.26, 396.95 10.49, 395.36 32 M363.36 0 C384.06 0.96, 396.63 11.79, 395.36 32 M395.36 32 C394.85 92.46, 395.12 153.08, 395.36 269.82 M395.36 32 C396.79 119.39, 395.62 206.96, 395.36 269.82 M395.36 269.82 C396.1 289.47, 382.85 302.77, 363.36 301.82 M395.36 269.82 C394.24 292.87, 384.53 303.55, 363.36 301.82 M363.36 301.82 C276.44 299.37, 187.32 300.01, 32 301.82 M363.36 301.82 C243.91 302.52, 124.76 303.71, 32 301.82 M32 301.82 C9.36 302.16, -1.04 291.87, 0 269.82 M32 301.82 C11.05 302.01, 2.06 292.68, 0 269.82 M0 269.82 C-0.62 177.6, -2.18 81.77, 0 32 M0 269.82 C-1.59 219.77, -0.22 168.28, 0 32 M0 32 C-1.19 9.5, 11.08 -1.22, 32 0 M0 32 C0.99 9.21, 9.97 1.85, 32 0" stroke="#1e1e1e" stroke-width="2" fill="none"></path></g><g transform="translate(275.9147409934077 3008.0068456847994) rotate(0 43.359375 11.5)"><text x="43.359375" y="18.400390625" font-family="Helvetica, Segoe UI Emoji" font-size="20px" fill="#1e1e1e" text-anchor="middle" style="white-space: pre;" direction="ltr" dominant-baseline="alphabetic">Input Text</text></g><g stroke-linecap="round" transform="translate(772.6802443304858 2780.031615206537) rotate(0 81.11618114115231 23.4013024202427)"><path d="M11.7 0 C49.31 2.01, 86.23 1.61, 150.53 0 M11.7 0 C59.46 -1.07, 108.49 -2.26, 150.53 0 M150.53 0 C158.27 -0.82, 160.79 5.78, 162.23 11.7 M150.53 0 C159.79 -1.44, 163.29 3.27, 162.23 11.7 M162.23 11.7 C160.85 15.46, 160.42 22.94, 162.23 35.1 M162.23 11.7 C162.32 18.63, 162.68 24.27, 162.23 35.1 M162.23 35.1 C163.06 42.83, 159.93 47.37, 150.53 46.8 M162.23 35.1 C160.49 42.51, 157.59 47.24, 150.53 46.8 M150.53 46.8 C112.6 48.43, 75.45 49.34, 11.7 46.8 M150.53 46.8 C116.19 46.55, 82.02 47.29, 11.7 46.8 M11.7 46.8 C2.69 45.49, -0.91 42.29, 0 35.1 M11.7 46.8 C3.64 48.41, -0.53 41.29, 0 35.1 M0 35.1 C-0.59 24.34, -1.91 18.54, 0 11.7 M0 35.1 C-0.72 26.49, -0.18 17.63, 0 11.7 M0 11.7 C-0.04 4.85, 3.54 -0.4, 11.7 0 M0 11.7 C0.21 3.98, 4.96 -2.14, 11.7 0" stroke="#1e1e1e" stroke-width="2" fill="none"></path></g><g transform="translate(796.5308004716381 2791.9329176267797) rotate(0 57.265625 11.5)"><text x="57.265625" y="18.400390625" font-family="Helvetica, Segoe UI Emoji" font-size="20px" fill="#1e1e1e" text-anchor="middle" style="white-space: pre;" direction="ltr" dominant-baseline="alphabetic">Voice Output</text></g><g stroke-linecap="round" transform="translate(32.73175544281014 3427.848331093215) rotate(0 566.3741760253906 356.195068359375)"><path d="M32 0 C287.52 -0.49, 543.47 -1.13, 1100.75 0 M32 0 C321.39 -0.69, 610.43 -0.31, 1100.75 0 M1100.75 0 C1120.6 0.91, 1133.82 11.19, 1132.75 32 M1100.75 0 C1121.87 -2.06, 1134.08 11.54, 1132.75 32 M1132.75 32 C1134.28 277.85, 1134.29 521.83, 1132.75 680.39 M1132.75 32 C1133.3 259.63, 1133.52 486.91, 1132.75 680.39 M1132.75 680.39 C1134.66 703.5, 1120.82 712.51, 1100.75 712.39 M1132.75 680.39 C1134.99 703.2, 1120.03 712.12, 1100.75 712.39 M1100.75 712.39 C790.08 714.55, 478.81 715.19, 32 712.39 M1100.75 712.39 C849.11 711.71, 597.35 711.33, 32 712.39 M32 712.39 C12.65 711.93, -0.5 703.53, 0 680.39 M32 712.39 C8.87 714.08, -1.26 700.03, 0 680.39 M0 680.39 C-0.1 479.41, 0 278.06, 0 32 M0 680.39 C-1.32 444.91, -0.67 209.72, 0 32 M0 32 C-0.68 9.04, 11.14 -0.56, 32 0 M0 32 C2.27 10.93, 11.34 -2.23, 32 0" stroke="#1e1e1e" stroke-width="2" fill="none"></path></g><g transform="translate(500.0927869208741 3382.428819697653) rotate(0 113.3837890625 11.5)"><text x="0" y="18.400390625" font-family="Helvetica, Segoe UI Emoji" font-size="20px" fill="#1e1e1e" text-anchor="start" style="white-space: pre;" direction="ltr" dominant-baseline="alphabetic">Currency Converter Page</text></g><g stroke-linecap="round" transform="translate(64.4173175765992 3451.4514805072777) rotate(0 23.126235961914062 18.46185302734375)"><path d="M17.35 0.28 C21.86 -0.9, 28.99 -0.27, 33.53 1.59 C38.07 3.45, 42.61 7.72, 44.59 11.41 C46.57 15.09, 46.95 19.91, 45.41 23.7 C43.88 27.5, 39.52 31.92, 35.4 34.17 C31.27 36.42, 25.45 37.77, 20.64 37.19 C15.83 36.61, 9.9 33.56, 6.51 30.69 C3.13 27.81, 0.61 23.89, 0.34 19.96 C0.07 16.03, 1.82 10.34, 4.88 7.1 C7.93 3.87, 16.31 1.68, 18.68 0.55 C21.05 -0.59, 19.06 0.04, 19.1 0.31 M19.08 0.27 C23.69 -0.58, 31.6 1.12, 35.81 3.14 C40.02 5.16, 42.87 8.65, 44.34 12.4 C45.81 16.15, 46.22 21.83, 44.63 25.62 C43.04 29.42, 39.23 33.26, 34.8 35.17 C30.36 37.08, 22.98 38.02, 18.02 37.09 C13.07 36.16, 8.11 32.76, 5.09 29.57 C2.07 26.38, -0.22 21.76, -0.09 17.95 C0.03 14.13, 2.57 9.7, 5.85 6.69 C9.14 3.68, 17.22 0.93, 19.64 -0.12 C22.06 -1.17, 20.36 -0.06, 20.37 0.41" stroke="#1e1e1e" stroke-width="2" fill="none"></path></g><g stroke-linecap="round" transform="translate(64.4173175765992 4077.45062601509) rotate(0 23.126235961914062 18.46185302734375)"><path d="M24.48 -0.34 C29.3 -0.28, 35.58 2.52, 39.2 5.28 C42.82 8.05, 45.75 12.31, 46.22 16.24 C46.69 20.18, 44.73 25.49, 42.02 28.87 C39.31 32.26, 34.62 35.51, 29.98 36.53 C25.34 37.55, 18.74 36.53, 14.2 34.97 C9.67 33.42, 4.99 30.7, 2.77 27.19 C0.56 23.67, -0.21 17.78, 0.92 13.89 C2.05 10, 5.53 6.19, 9.54 3.83 C13.56 1.47, 22.33 0.29, 25.03 -0.28 C27.73 -0.85, 25.81 -0.03, 25.73 0.41 M28.94 0.93 C33.57 1.51, 37.99 4.04, 40.86 7.19 C43.73 10.34, 46.2 15.78, 46.16 19.84 C46.12 23.9, 44.08 28.62, 40.62 31.52 C37.16 34.43, 30.42 36.96, 25.42 37.29 C20.41 37.62, 14.67 35.76, 10.59 33.51 C6.51 31.26, 2.39 27.43, 0.95 23.8 C-0.5 20.16, 0 15.39, 1.94 11.71 C3.89 8.03, 8.11 3.62, 12.61 1.71 C17.11 -0.19, 26.4 0.32, 28.96 0.28 C31.51 0.24, 28.23 1.07, 27.92 1.49" stroke="#1e1e1e" stroke-width="2" fill="none"></path></g><g transform="translate(735.1321101140637 3467.2565906003347) rotate(0 87.2509765625 11.5)"><text x="0" y="18.400390625" font-family="Helvetica, Segoe UI Emoji" font-size="20px" fill="#1e1e1e" text-anchor="start" style="white-space: pre;" direction="ltr" dominant-baseline="alphabetic">Currency Converter</text></g><g transform="translate(935.0838341007233 3467.7021593041154) rotate(0 81.3427734375 11.5)"><text x="0" y="18.400390625" font-family="Helvetica, Segoe UI Emoji" font-size="20px" fill="#1e1e1e" text-anchor="start" style="white-space: pre;" direction="ltr" dominant-baseline="alphabetic">Speech Translator</text></g><g transform="translate(1007.999880695006 4097.2212359700425) rotate(0 32.90625 9.199999999999818)"><text x="0" y="14.720312499999999" font-family="Helvetica, Segoe UI Emoji" font-size="16px" fill="#1e1e1e" text-anchor="start" style="white-space: pre;" direction="ltr" dominant-baseline="alphabetic">About Us</text></g><g stroke-linecap="round"><g transform="translate(32.325874029658735 3525.937438773064) rotate(0 568.3015747070312 -0.2218780517578125)"><path d="M0.94 0.49 C190.08 0.46, 946.08 0.31, 1135.52 0.27 M-0.03 -0.3 C189.4 -0.72, 948.1 -1.25, 1137.67 -1.47" stroke="#1e1e1e" stroke-width="2" fill="none"></path></g></g><mask></mask><g stroke-linecap="round" transform="translate(303.8190731733008 3563.8504599051594) rotate(0 287.77252342388203 107.42786051605299)"><path d="M32 0 C225.92 2.51, 419.37 1.3, 543.55 0 M32 0 C211.27 0.25, 391.04 -0.05, 543.55 0 M543.55 0 C566.79 1.77, 574.28 10.78, 575.55 32 M543.55 0 C567.12 1.48, 573.5 10.4, 575.55 32 M575.55 32 C578.01 74.22, 577.94 119.76, 575.55 182.86 M575.55 32 C575.55 68.03, 575.46 102.61, 575.55 182.86 M575.55 182.86 C577.53 203.73, 564.38 216.67, 543.55 214.86 M575.55 182.86 C573.74 205.88, 563.62 213.16, 543.55 214.86 M543.55 214.86 C384.39 214.48, 225.79 214.28, 32 214.86 M543.55 214.86 C357.62 212.82, 172.65 212.92, 32 214.86 M32 214.86 C9.99 213.23, 0.48 203.63, 0 182.86 M32 214.86 C12.94 215.12, 0.67 201.96, 0 182.86 M0 182.86 C2.57 140.94, 2.89 96.85, 0 32 M0 182.86 C1.5 142.43, 1.26 102.65, 0 32 M0 32 C-1.22 12.23, 9.4 1.32, 32 0 M0 32 C-1.24 9.29, 12.89 -1.74, 32 0" stroke="#1e1e1e" stroke-width="2" fill="none"></path></g><g transform="translate(548.6781959193569 3739.921690548378) rotate(0 37.8076171875 11.5)"><text x="0" y="18.400390625" font-family="Helvetica, Segoe UI Emoji" font-size="20px" fill="#1e1e1e" text-anchor="start" style="white-space: pre;" direction="ltr" dominant-baseline="alphabetic">Location</text></g><g transform="translate(451.5841624418357 3816.3948625686417) rotate(0 141.8798828125 16.09999999999991)"><text x="0" y="25.760546874999996" font-family="Helvetica, Segoe UI Emoji" font-size="28px" fill="#1e1e1e" text-anchor="start" style="white-space: pre;" direction="ltr" dominant-baseline="alphabetic">Convert Your Currency</text></g><g stroke-linecap="round" transform="translate(206.34348732243677 3919.82820895667) rotate(0 81.11618114115231 23.4013024202427)"><path d="M11.7 0 C43.74 -1.82, 76.41 -0.73, 150.53 0 M11.7 0 C44.11 -1.17, 78.76 -0.59, 150.53 0 M150.53 0 C156.55 -0.23, 162.06 5.25, 162.23 11.7 M150.53 0 C159.86 1.66, 160.26 5.48, 162.23 11.7 M162.23 11.7 C161.67 19.01, 163.07 25.74, 162.23 35.1 M162.23 11.7 C162.21 18.56, 161.68 24.34, 162.23 35.1 M162.23 35.1 C161.14 41.43, 158.54 46.52, 150.53 46.8 M162.23 35.1 C161.63 41.58, 158.8 45.75, 150.53 46.8 M150.53 46.8 C107.78 45.87, 67.68 49.14, 11.7 46.8 M150.53 46.8 C112.28 45.39, 74.53 45.79, 11.7 46.8 M11.7 46.8 C4.48 44.86, -0.22 41.35, 0 35.1 M11.7 46.8 C2.16 48.41, 1.97 44.88, 0 35.1 M0 35.1 C-0.35 27.18, -0.39 18.21, 0 11.7 M0 35.1 C-0.49 28.31, -0.4 19.61, 0 11.7 M0 11.7 C1.94 2.39, 2.55 0.47, 11.7 0 M0 11.7 C-1.23 4.79, 4.25 1.9, 11.7 0" stroke="#1e1e1e" stroke-width="2" fill="none"></path></g><g transform="translate(265.2184575260891 3931.7295113769123) rotate(0 22.2412109375 11.5)"><text x="22.2412109375" y="18.400390625" font-family="Helvetica, Segoe UI Emoji" font-size="20px" fill="#1e1e1e" text-anchor="middle" style="white-space: pre;" direction="ltr" dominant-baseline="alphabetic">Input</text></g><g stroke-linecap="round" transform="translate(376.7676253691701 3918.1918377586544) rotate(0 70.35665220724457 24.596047874580563)"><path d="M12.3 0 C37.89 2.08, 67.74 -1.1, 128.42 0 M12.3 0 C46.93 -0.86, 83.25 -0.07, 128.42 0 M128.42 0 C137.95 1.44, 139 5.47, 140.71 12.3 M128.42 0 C136.5 -1.48, 140.41 3.62, 140.71 12.3 M140.71 12.3 C139.92 22.16, 140.38 27.55, 140.71 36.89 M140.71 12.3 C139.97 21.16, 140.62 31.37, 140.71 36.89 M140.71 36.89 C140.19 43.94, 137.02 48.28, 128.42 49.19 M140.71 36.89 C140.6 46.54, 137.53 47.12, 128.42 49.19 M128.42 49.19 C101.74 49.56, 74.35 50.71, 12.3 49.19 M128.42 49.19 C97.11 48.35, 65.11 48.55, 12.3 49.19 M12.3 49.19 C2.59 50.59, 1.71 46.81, 0 36.89 M12.3 49.19 C5.54 48.42, -1.86 44.6, 0 36.89 M0 36.89 C0.42 27.61, 1.62 19.49, 0 12.3 M0 36.89 C1.1 27.14, -0.54 19.13, 0 12.3 M0 12.3 C-1.07 4.88, 4.4 1.66, 12.3 0 M0 12.3 C-1.57 4.01, 5.07 1.45, 12.3 0" stroke="#1e1e1e" stroke-width="2" fill="none"></path></g><g transform="translate(383.76001976391467 3931.2878856332354) rotate(0 63.3642578125 11.5)"><text x="63.3642578125" y="18.400390625" font-family="Helvetica, Segoe UI Emoji" font-size="20px" fill="#1e1e1e" text-anchor="middle" style="white-space: pre;" direction="ltr" dominant-baseline="alphabetic">Input currency</text></g><g stroke-linecap="round" transform="translate(667.0615335436036 3922.212903132353) rotate(0 81.11618114115231 23.4013024202427)"><path d="M11.7 0 C66.74 2.83, 122.83 -0.9, 150.53 0 M11.7 0 C52.41 -0.22, 90.93 -0.25, 150.53 0 M150.53 0 C158.23 -1.29, 161.97 3.49, 162.23 11.7 M150.53 0 C158.8 1.14, 162.5 2.85, 162.23 11.7 M162.23 11.7 C163.99 19.47, 163.65 29.29, 162.23 35.1 M162.23 11.7 C161.99 16.42, 162.46 21.83, 162.23 35.1 M162.23 35.1 C162.13 44.16, 159.12 45, 150.53 46.8 M162.23 35.1 C160.53 41.81, 160.39 46.28, 150.53 46.8 M150.53 46.8 C113.02 49.11, 76.85 47.72, 11.7 46.8 M150.53 46.8 C121.61 46.43, 95.05 46.59, 11.7 46.8 M11.7 46.8 C5.15 46.13, -1.61 42.47, 0 35.1 M11.7 46.8 C4.55 46.27, 0.09 43.32, 0 35.1 M0 35.1 C1.14 28.43, -1.38 25.85, 0 11.7 M0 35.1 C-0.38 30.24, 0.31 25.42, 0 11.7 M0 11.7 C-1.37 3.83, 4.75 1.26, 11.7 0 M0 11.7 C-0.47 4.5, 6.12 0.06, 11.7 0" stroke="#1e1e1e" stroke-width="2" fill="none"></path></g><g transform="translate(718.1581834347559 3934.114205552596) rotate(0 30.01953125 11.5)"><text x="30.01953125" y="18.400390625" font-family="Helvetica, Segoe UI Emoji" font-size="20px" fill="#1e1e1e" text-anchor="middle" style="white-space: pre;" direction="ltr" dominant-baseline="alphabetic">Output</text></g><g stroke-linecap="round" transform="translate(835.2860268894871 3917.5765180713092) rotate(0 76.43414553958814 28.000000000000227)"><path d="M14 0 C63.4 0.94, 114.61 2.44, 138.87 0 M14 0 C60.41 -1.5, 106.8 -1.06, 138.87 0 M138.87 0 C148.6 0.99, 153.1 3.76, 152.87 14 M138.87 0 C150.48 -0.53, 152.29 6.75, 152.87 14 M152.87 14 C151.6 20.41, 152.79 25.89, 152.87 42 M152.87 14 C152.87 21.42, 153.32 26.69, 152.87 42 M152.87 42 C151.38 50.38, 149.99 55.55, 138.87 56 M152.87 42 C152.09 49.46, 148.75 55.36, 138.87 56 M138.87 56 C87.13 56.15, 37.72 54.85, 14 56 M138.87 56 C93.28 56.74, 45.64 56.86, 14 56 M14 56 C5.23 55.54, 0.08 51.7, 0 42 M14 56 C3.27 57.8, -1.46 52.85, 0 42 M0 42 C-1.34 33.76, 0.64 27.15, 0 14 M0 42 C-0.73 32.48, 0.38 23.66, 0 14 M0 14 C-0.41 5.19, 6.6 0.06, 14 0 M0 14 C0.03 2.37, 4.49 -1.56, 14 0" stroke="#1e1e1e" stroke-width="2" fill="none"></path></g><g transform="translate(840.5775943040752 3934.0765180713092) rotate(0 71.142578125 11.500000000000227)"><text x="71.142578125" y="18.400390625" font-family="Helvetica, Segoe UI Emoji" font-size="20px" fill="#1e1e1e" text-anchor="middle" style="white-space: pre;" direction="ltr" dominant-baseline="alphabetic">Output currency</text></g><g stroke-linecap="round" transform="translate(650.7896464869624 2871.378444680629) rotate(0 197.68002331191428 150.90893985966545)"><path d="M32 0 C109.65 1.09, 185.19 -0.21, 363.36 0 M32 0 C109.67 -0.15, 187.77 -0.52, 363.36 0 M363.36 0 C385.83 -0.56, 395.24 9.23, 395.36 32 M363.36 0 C386.58 -1.25, 394.3 11.88, 395.36 32 M395.36 32 C394.83 88.01, 394.6 144.71, 395.36 269.82 M395.36 32 C395.86 115.51, 396.53 200.83, 395.36 269.82 M395.36 269.82 C396.99 289.21, 385.28 303.18, 363.36 301.82 M395.36 269.82 C395.29 293.12, 384.74 301.26, 363.36 301.82 M363.36 301.82 C254.06 301.75, 144.55 301.4, 32 301.82 M363.36 301.82 C264.81 300.59, 166.28 301.37, 32 301.82 M32 301.82 C12.36 302, 0.93 289.18, 0 269.82 M32 301.82 C10.38 300.43, 0.04 293.31, 0 269.82 M0 269.82 C-1.69 218.71, 0.41 166.76, 0 32 M0 269.82 C0.82 209.82, 1.11 150.11, 0 32 M0 32 C1.1 11.96, 9.04 -0.33, 32 0 M0 32 C-2.1 12.84, 10.34 -0.48, 32 0" stroke="#1e1e1e" stroke-width="2" fill="none"></path></g><g transform="translate(797.3319744863767 3010.787384540294) rotate(0 51.1376953125 11.5)"><text x="51.1376953125" y="18.400390625" font-family="Helvetica, Segoe UI Emoji" font-size="20px" fill="#1e1e1e" text-anchor="middle" style="white-space: pre;" direction="ltr" dominant-baseline="alphabetic">Output Text</text></g><g transform="translate(117.04561436589898 3250.593687487546) rotate(0 60.19531250000003 11.5)"><text x="0" y="18.400390625" font-family="Helvetica, Segoe UI Emoji" font-size="20px" fill="#1e1e1e" text-anchor="start" style="white-space: pre;" direction="ltr" dominant-baseline="alphabetic">MTB Traveler</text></g><g transform="translate(126.04392652063939 3461.384846240653) rotate(0 60.1953125 11.5)"><text x="0" y="18.400390625" font-family="Helvetica, Segoe UI Emoji" font-size="20px" fill="#1e1e1e" text-anchor="start" style="white-space: pre;" direction="ltr" dominant-baseline="alphabetic">MTB Traveler</text></g><g transform="translate(124.432420020177 4084.143972779484) rotate(0 60.1953125 11.5)"><text x="0" y="18.400390625" font-family="Helvetica, Segoe UI Emoji" font-size="20px" fill="#1e1e1e" text-anchor="start" style="white-space: pre;" direction="ltr" dominant-baseline="alphabetic">MTB Traveler</text></g><g transform="translate(110.33113447065239 82.56544107085477) rotate(0 60.1953125 11.5)"><text x="0" y="18.400390625" font-family="Helvetica, Segoe UI Emoji" font-size="20px" fill="#1e1e1e" text-anchor="start" style="white-space: pre;" direction="ltr" dominant-baseline="alphabetic">MTB Traveler</text></g><g transform="translate(111.8891916606268 711.9489211340124) rotate(0 60.1953125 11.5)"><text x="0" y="18.400390625" font-family="Helvetica, Segoe UI Emoji" font-size="20px" fill="#1e1e1e" text-anchor="start" style="white-space: pre;" direction="ltr" dominant-baseline="alphabetic">MTB Traveler</text></g><g transform="translate(108.486056441208 921.5510121983657) rotate(0 60.1953125 11.5)"><text x="0" y="18.400390625" font-family="Helvetica, Segoe UI Emoji" font-size="20px" fill="#1e1e1e" text-anchor="start" style="white-space: pre;" direction="ltr" dominant-baseline="alphabetic">MTB Traveler</text></g><g transform="translate(108.68167830712673 1545.2004384852758) rotate(0 60.1953125 11.5)"><text x="0" y="18.400390625" font-family="Helvetica, Segoe UI Emoji" font-size="20px" fill="#1e1e1e" text-anchor="start" style="white-space: pre;" direction="ltr" dominant-baseline="alphabetic">MTB Traveler</text></g><g transform="translate(111.8891916606268 1737.0232918741353) rotate(0 60.1953125 11.5)"><text x="0" y="18.400390625" font-family="Helvetica, Segoe UI Emoji" font-size="20px" fill="#1e1e1e" text-anchor="start" style="white-space: pre;" direction="ltr" dominant-baseline="alphabetic">MTB Traveler</text></g><g transform="translate(115.55520090036987 2358.1566848677103) rotate(0 60.1953125 11.5)"><text x="0" y="18.400390625" font-family="Helvetica, Segoe UI Emoji" font-size="20px" fill="#1e1e1e" text-anchor="start" style="white-space: pre;" direction="ltr" dominant-baseline="alphabetic">MTB Traveler</text></g><g transform="translate(452.365282667015 1550.6344998253999) rotate(0 136.64453124999994 9.200000000000045)"><text x="0" y="14.720312499999999" font-family="Helvetica, Segoe UI Emoji" font-size="16px" fill="#1e1e1e" text-anchor="start" style="white-space: pre;" direction="ltr" dominant-baseline="alphabetic">MTB Traveler 2024. All rights reserved</text></g><g transform="translate(458.5898758111289 2365.5554488845605) rotate(0 136.64453124999994 9.200000000000045)"><text x="0" y="14.720312499999999" font-family="Helvetica, Segoe UI Emoji" font-size="16px" fill="#1e1e1e" text-anchor="start" style="white-space: pre;" direction="ltr" dominant-baseline="alphabetic">MTB Traveler 2024. All rights reserved</text></g><g transform="translate(436.40769408022686 3259.2333369618036) rotate(0 136.64453125 9.200000000000045)"><text x="0" y="14.720312499999999" font-family="Helvetica, Segoe UI Emoji" font-size="16px" fill="#1e1e1e" text-anchor="start" style="white-space: pre;" direction="ltr" dominant-baseline="alphabetic">MTB Traveler 2024. All rights reserved</text></g><g transform="translate(466.1502448857274 4091.123038974907) rotate(0 136.64453125 9.199999999999818)"><text x="0" y="14.720312499999999" font-family="Helvetica, Segoe UI Emoji" font-size="16px" fill="#1e1e1e" text-anchor="start" style="white-space: pre;" direction="ltr" dominant-baseline="alphabetic">MTB Traveler 2024. All rights reserved</text></g><g stroke-linecap="round" transform="translate(40.30456834989809 4321.093326276888) rotate(0 566.3741760253906 356.195068359375)"><path d="M32 0 C355.33 4.95, 677.81 4.28, 1100.75 0 M32 0 C281.85 1.92, 531.19 2.53, 1100.75 0 M1100.75 0 C1123.41 -1.99, 1132.65 12.47, 1132.75 32 M1100.75 0 C1122.66 1.28, 1133.83 9.93, 1132.75 32 M1132.75 32 C1133.18 273.46, 1132.49 514.79, 1132.75 680.39 M1132.75 32 C1134.12 261.72, 1134.14 491.92, 1132.75 680.39 M1132.75 680.39 C1130.89 701.92, 1121.56 711.78, 1100.75 712.39 M1132.75 680.39 C1131.21 702.47, 1121.01 712.36, 1100.75 712.39 M1100.75 712.39 C745.18 713.59, 388.33 713.41, 32 712.39 M1100.75 712.39 C787.42 715.46, 474.49 715.06, 32 712.39 M32 712.39 C9.32 710.96, -0.58 701.88, 0 680.39 M32 712.39 C12.18 711.94, -0.79 702.3, 0 680.39 M0 680.39 C3.16 447.54, 2.16 213.7, 0 32 M0 680.39 C1.85 504.49, 1.85 327.97, 0 32 M0 32 C-0.34 11.84, 12.45 1.79, 32 0 M0 32 C0.49 10.33, 8.64 -1.2, 32 0" stroke="#1e1e1e" stroke-width="2" fill="none"></path></g><g transform="translate(507.6655998279622 4275.6738148813265) rotate(0 67.265625 11.5)"><text x="0" y="18.400390625" font-family="Helvetica, Segoe UI Emoji" font-size="20px" fill="#1e1e1e" text-anchor="start" style="white-space: pre;" direction="ltr" dominant-baseline="alphabetic">About Us Page</text></g><g stroke-linecap="round" transform="translate(71.99013048368715 4344.69647569095) rotate(0 23.126235961914062 18.46185302734375)"><path d="M17.38 0.73 C22.01 -0.41, 29.46 0.53, 33.86 2.25 C38.27 3.96, 41.82 7.44, 43.81 11.03 C45.79 14.62, 47.03 19.94, 45.77 23.78 C44.51 27.62, 40.45 31.83, 36.22 34.06 C32 36.29, 25.38 37.68, 20.41 37.17 C15.44 36.66, 9.75 33.89, 6.4 31.01 C3.05 28.13, 0.65 23.74, 0.31 19.9 C-0.04 16.05, 1.29 11.16, 4.33 7.95 C7.36 4.74, 16.14 1.8, 18.5 0.64 C20.86 -0.52, 18.47 0.67, 18.49 0.99 M27.09 0.07 C31.81 0.55, 37.3 3.84, 40.43 6.93 C43.57 10.01, 45.81 14.76, 45.9 18.57 C46 22.38, 44.11 26.65, 41 29.77 C37.88 32.89, 32.17 36.52, 27.22 37.3 C22.28 38.08, 15.7 36.58, 11.35 34.47 C6.99 32.35, 2.78 28.26, 1.08 24.61 C-0.61 20.96, -0.54 16.22, 1.17 12.56 C2.88 8.89, 6.99 4.75, 11.35 2.61 C15.72 0.48, 24.82 0.17, 27.38 -0.25 C29.93 -0.66, 26.82 -0.28, 26.7 0.13" stroke="#1e1e1e" stroke-width="2" fill="none"></path></g><g stroke-linecap="round" transform="translate(71.99013048368715 4970.695621198763) rotate(0 23.126235961914062 18.46185302734375)"><path d="M28.52 0.75 C33.14 1.28, 37.89 4.05, 40.92 7.14 C43.95 10.23, 46.75 15.32, 46.68 19.32 C46.62 23.31, 43.95 28.15, 40.52 31.11 C37.08 34.08, 31.03 36.65, 26.08 37.11 C21.12 37.57, 14.9 36, 10.78 33.87 C6.66 31.75, 2.9 28, 1.36 24.34 C-0.18 20.68, -0.33 15.56, 1.55 11.9 C3.43 8.23, 8.21 4.18, 12.64 2.34 C17.07 0.49, 25.44 0.99, 28.14 0.82 C30.83 0.64, 28.76 1.13, 28.8 1.3 M23.19 0.25 C27.87 0.14, 34.23 2.14, 38.07 4.6 C41.91 7.07, 45.4 11.03, 46.24 15.05 C47.08 19.07, 45.73 25.22, 43.09 28.72 C40.46 32.21, 35.19 34.89, 30.42 36.03 C25.64 37.18, 19.08 36.97, 14.43 35.6 C9.79 34.23, 4.93 31.25, 2.55 27.82 C0.16 24.39, -0.92 19.07, 0.12 15.01 C1.16 10.96, 4.94 6.08, 8.78 3.49 C12.63 0.9, 20.74 -0.02, 23.18 -0.53 C25.63 -1.04, 23.3 0.06, 23.46 0.43" stroke="#1e1e1e" stroke-width="2" fill="none"></path></g><g transform="translate(742.7049230211516 4360.501585784007) rotate(0 87.2509765625 11.5)"><text x="0" y="18.400390625" font-family="Helvetica, Segoe UI Emoji" font-size="20px" fill="#1e1e1e" text-anchor="start" style="white-space: pre;" direction="ltr" dominant-baseline="alphabetic">Currency Converter</text></g><g transform="translate(942.6566470078111 4360.947154487788) rotate(0 81.3427734375 11.5)"><text x="0" y="18.400390625" font-family="Helvetica, Segoe UI Emoji" font-size="20px" fill="#1e1e1e" text-anchor="start" style="white-space: pre;" direction="ltr" dominant-baseline="alphabetic">Speech Translator</text></g><g transform="translate(1015.5726936020939 4990.466231153715) rotate(0 32.90625 9.199999999999818)"><text x="0" y="14.720312499999999" font-family="Helvetica, Segoe UI Emoji" font-size="16px" fill="#1e1e1e" text-anchor="start" style="white-space: pre;" direction="ltr" dominant-baseline="alphabetic">About Us</text></g><g stroke-linecap="round"><g transform="translate(39.898686936746685 4419.1824339567365) rotate(0 568.3015747070312 -0.2218780517578125)"><path d="M-0.06 1.08 C189.3 1.32, 947.37 0.54, 1136.91 0.22 M-1.54 0.6 C187.61 0.6, 946.41 -1.5, 1136.12 -1.55" stroke="#1e1e1e" stroke-width="2" fill="none"></path></g></g><mask></mask><g transform="translate(133.61673942772734 4354.629841424326) rotate(0 60.1953125 11.5)"><text x="0" y="18.400390625" font-family="Helvetica, Segoe UI Emoji" font-size="20px" fill="#1e1e1e" text-anchor="start" style="white-space: pre;" direction="ltr" dominant-baseline="alphabetic">MTB Traveler</text></g><g transform="translate(132.00523292726496 4977.388967963157) rotate(0 60.1953125 11.5)"><text x="0" y="18.400390625" font-family="Helvetica, Segoe UI Emoji" font-size="20px" fill="#1e1e1e" text-anchor="start" style="white-space: pre;" direction="ltr" dominant-baseline="alphabetic">MTB Traveler</text></g><g transform="translate(473.72305779281544 4984.36803415858) rotate(0 136.64453125 9.199999999999818)"><text x="0" y="14.720312499999999" font-family="Helvetica, Segoe UI Emoji" font-size="16px" fill="#1e1e1e" text-anchor="start" style="white-space: pre;" direction="ltr" dominant-baseline="alphabetic">MTB Traveler 2024. All rights reserved</text></g><g stroke-linecap="round" transform="translate(218.6873650144289 4477.1974493354855) rotate(0 168.84242248535156 87.60240173339844)"><path d="M32 0 C111.16 -2.38, 188.91 -0.33, 305.68 0 M32 0 C98.4 -0.44, 163.51 -0.46, 305.68 0 M305.68 0 C329.01 1.23, 337.39 11.32, 337.68 32 M305.68 0 C326.58 -0.6, 335.48 9.41, 337.68 32 M337.68 32 C340.03 56.99, 340.39 77.51, 337.68 143.2 M337.68 32 C338.64 66.51, 338.04 102.41, 337.68 143.2 M337.68 143.2 C337.1 162.69, 327 176.55, 305.68 175.2 M337.68 143.2 C339.04 163.83, 326.46 173.7, 305.68 175.2 M305.68 175.2 C209.86 173.61, 114.4 176.29, 32 175.2 M305.68 175.2 C219.7 177.28, 134.41 176.82, 32 175.2 M32 175.2 C11.35 175.16, -0.2 163.5, 0 143.2 M32 175.2 C11.18 174.76, 0.27 164.01, 0 143.2 M0 143.2 C0.71 113.23, -0.12 86.93, 0 32 M0 143.2 C-0.45 103.52, -0.42 63.15, 0 32 M0 32 C1.01 12.4, 9.77 0.48, 32 0 M0 32 C-1.82 10.26, 11.33 0.2, 32 0" stroke="#1e1e1e" stroke-width="2" fill="none"></path></g><g stroke-linecap="round" transform="translate(640.2714256833742 4477.103348383337) rotate(0 168.8424224853515 87.60240173339844)"><path d="M32 0 C135.28 2.32, 237.67 -0.11, 305.68 0 M32 0 C122.97 -0.54, 215.93 -0.33, 305.68 0 M305.68 0 C326.72 0.66, 337.3 10.14, 337.68 32 M305.68 0 C324.81 -1.26, 335.58 12.35, 337.68 32 M337.68 32 C340.42 54.11, 338.85 78.44, 337.68 143.2 M337.68 32 C338.45 55.18, 338.11 77.1, 337.68 143.2 M337.68 143.2 C337.66 165.88, 328.2 174.59, 305.68 175.2 M337.68 143.2 C337.13 163.03, 328.22 176.52, 305.68 175.2 M305.68 175.2 C227.82 174.63, 147.35 172.37, 32 175.2 M305.68 175.2 C203.54 176.53, 100.55 176.49, 32 175.2 M32 175.2 C10.47 174.17, 0.45 164.15, 0 143.2 M32 175.2 C10.93 174.67, -1.02 164.61, 0 143.2 M0 143.2 C-0.5 111.23, 0.86 78.1, 0 32 M0 143.2 C0.08 119.28, 0.97 94.49, 0 32 M0 32 C-0.9 11.15, 9.08 -0.35, 32 0 M0 32 C0.67 10.86, 11.15 1.01, 32 0" stroke="#1e1e1e" stroke-width="2" fill="none"></path></g><g transform="translate(331.1322837531543 4551.467501941903) rotate(0 42.8076171875 11.5)"><text x="0" y="18.400390625" font-family="Helvetica, Segoe UI Emoji" font-size="20px" fill="#1e1e1e" text-anchor="start" style="white-space: pre;" direction="ltr" dominant-baseline="alphabetic">Headshot</text></g><g transform="translate(761.773029153156 4548.7842366400955) rotate(0 57.2607421875 11.5)"><text x="0" y="18.400390625" font-family="Helvetica, Segoe UI Emoji" font-size="20px" fill="#1e1e1e" text-anchor="start" style="white-space: pre;" direction="ltr" dominant-baseline="alphabetic">Riding Photo</text></g><g transform="translate(291.29461325710406 4753.985486978066) rotate(0 92.8076171875 11.5)"><text x="0" y="18.400390625" font-family="Helvetica, Segoe UI Emoji" font-size="20px" fill="#1e1e1e" text-anchor="start" style="white-space: pre;" direction="ltr" dominant-baseline="alphabetic">Description of myself</text></g><g transform="translate(699.2613632298948 4754.033485920957) rotate(0 116.0009765625 11.5)"><text x="0" y="18.400390625" font-family="Helvetica, Segoe UI Emoji" font-size="20px" fill="#1e1e1e" text-anchor="start" style="white-space: pre;" direction="ltr" dominant-baseline="alphabetic">Links to different accounts</text></g></svg>